<svg width="553" height="673" viewBox="0 0 553 673" fill="none" xmlns="http://www.w3.org/2000/svg">
<path fill-rule="evenodd" clip-rule="evenodd" d="M403.526 123.934C432.764 114.895 464.749 124.674 483.934 148.518C474.895 119.28 484.674 87.2942 508.518 68.1093C479.279 77.1487 447.294 67.3698 428.109 43.526C437.149 72.7643 427.37 104.75 403.526 123.934ZM392.727 128.216C425.572 109.211 438.153 68.0602 421.551 33.938L423.828 32.7275C442.833 65.5717 483.983 78.1527 518.106 61.5512L519.316 63.8278C486.472 82.8329 473.891 123.984 490.492 158.106L488.216 159.316C469.211 126.472 428.06 113.891 393.938 130.493L392.727 128.216Z" fill="#FDFDFF"/>
<path fill-rule="evenodd" clip-rule="evenodd" d="M486.744 135.926C483.242 123.495 476.516 107.185 467.372 89.9868C458.227 72.7882 448.467 58.0925 440.12 48.2375C435.932 43.2936 432.191 39.677 429.141 37.5571C427.612 36.4949 426.375 35.8918 425.434 35.6348C424.508 35.3823 424.081 35.5144 423.901 35.6106C423.72 35.7068 423.371 35.9869 423.063 36.895C422.75 37.8191 422.558 39.1824 422.584 41.0435C422.636 44.7579 423.542 49.8816 425.299 56.1178C428.801 68.5489 435.527 84.858 444.672 102.057C453.816 119.255 463.576 133.951 471.924 143.806C476.111 148.75 479.852 152.366 482.902 154.486C484.431 155.549 485.669 156.152 486.61 156.409C487.535 156.661 487.962 156.529 488.143 156.433C488.324 156.337 488.672 156.057 488.98 155.148C489.293 154.224 489.485 152.861 489.46 151C489.408 147.286 488.501 142.162 486.744 135.926ZM489.354 158.711C496.881 154.709 488.059 123.398 469.65 88.7755C451.241 54.1532 430.216 29.3305 422.689 33.3325C415.163 37.3344 423.985 68.6456 442.394 103.268C460.803 137.89 481.828 162.713 489.354 158.711Z" fill="#FDFDFF"/>
<path fill-rule="evenodd" clip-rule="evenodd" d="M416.118 126.744C428.549 123.242 444.858 116.516 462.057 107.372C479.255 98.227 493.951 88.467 503.806 80.1198C508.75 75.9323 512.366 72.1913 514.486 69.1409C515.549 67.6125 516.152 66.3749 516.409 65.4335C516.661 64.5085 516.529 64.0814 516.433 63.9005C516.337 63.7197 516.057 63.3713 515.148 63.0634C514.224 62.75 512.861 62.5579 511 62.5839C507.286 62.6356 502.162 63.542 495.926 65.299C483.495 68.8015 467.186 75.527 449.987 84.6717C432.788 93.8164 418.093 103.576 408.238 111.924C403.294 116.111 399.677 119.852 397.557 122.903C396.495 124.431 395.892 125.669 395.635 126.61C395.382 127.535 395.514 127.962 395.611 128.143C395.707 128.324 395.987 128.672 396.895 128.98C397.819 129.293 399.182 129.485 401.044 129.46C404.758 129.408 409.882 128.501 416.118 126.744ZM393.332 129.354C397.334 136.881 428.646 128.059 463.268 109.65C497.89 91.2408 522.713 70.2158 518.711 62.6892C514.709 55.1627 483.398 63.9846 448.776 82.3936C414.153 100.803 389.331 121.828 393.332 129.354Z" fill="#FDFDFF"/>
<path fill-rule="evenodd" clip-rule="evenodd" d="M16.3143 432.854C27.1187 429.409 39.0023 432.929 46.1886 441.701C42.744 430.897 46.2634 419.013 55.0361 411.827C44.2316 415.271 32.348 411.752 25.1617 402.979C28.6063 413.784 25.0869 425.667 16.3143 432.854ZM12.327 434.475C24.4351 427.326 28.963 412.038 22.7005 399.448L23.5401 398.992C30.6891 411.1 45.9779 415.628 58.5674 409.366L59.0234 410.205C46.9152 417.354 42.3873 432.643 48.6498 445.233L47.8102 445.688C40.6612 433.58 25.3724 429.052 12.7829 435.315L12.327 434.475Z" fill="#FDFDFF"/>
<path fill-rule="evenodd" clip-rule="evenodd" d="M47.1889 437.026C45.8506 432.431 43.3055 426.41 39.8611 420.067C36.4167 413.724 32.7524 408.311 29.6274 404.686C28.0597 402.868 26.6618 401.54 25.5246 400.764C24.9548 400.376 24.4942 400.156 24.1446 400.064C23.801 399.974 23.6432 400.024 23.5765 400.06C23.5098 400.096 23.3816 400.201 23.2705 400.539C23.1574 400.882 23.0906 401.388 23.1063 402.077C23.1376 403.454 23.4901 405.349 24.1614 407.654C25.4996 412.249 28.0448 418.27 31.4892 424.613C34.9336 430.956 38.5978 436.37 41.7228 439.994C43.2906 441.813 44.6885 443.14 45.8257 443.916C46.3955 444.305 46.856 444.524 47.2057 444.616C47.5492 444.707 47.7071 444.657 47.7738 444.62C47.8405 444.584 47.9686 444.479 48.0798 444.142C48.1929 443.798 48.2596 443.292 48.244 442.603C48.2127 441.227 47.8602 439.331 47.1889 437.026ZM48.23 445.46C51.0059 443.953 47.6351 432.38 40.7013 419.611C33.7674 406.842 25.8961 397.713 23.1202 399.22C20.3444 400.727 23.7151 412.301 30.649 425.07C37.5829 437.838 45.4541 446.968 48.23 445.46Z" fill="#FDFDFF"/>
<path fill-rule="evenodd" clip-rule="evenodd" d="M20.9892 433.854C25.584 432.516 31.6052 429.971 37.9482 426.526C44.2912 423.082 49.7048 419.418 53.3293 416.292C55.1476 414.725 56.4755 413.327 57.2511 412.19C57.6397 411.62 57.8591 411.159 57.9513 410.81C58.0418 410.466 57.9915 410.308 57.9552 410.242C57.919 410.175 57.8141 410.047 57.4766 409.936C57.1332 409.822 56.6274 409.756 55.9379 409.771C54.5617 409.803 52.6661 410.155 50.3611 410.826C45.7663 412.165 39.7451 414.71 33.4021 418.154C27.0591 421.599 21.6455 425.263 18.021 428.388C16.2028 429.956 14.8749 431.354 14.0993 432.491C13.7107 433.061 13.4912 433.521 13.3991 433.871C13.3085 434.214 13.3588 434.372 13.3951 434.439C13.4313 434.506 13.5362 434.634 13.8737 434.745C14.2172 434.858 14.7229 434.925 15.4125 434.909C16.7886 434.878 18.6842 434.525 20.9892 433.854ZM12.5549 434.895C14.0622 437.671 25.6355 434.3 38.4045 427.366C51.1735 420.432 60.3028 412.561 58.7954 409.785C57.2881 407.009 45.7148 410.38 32.9458 417.314C20.1769 424.248 11.0475 432.119 12.5549 434.895Z" fill="#FDFDFF"/>
<circle cx="133" cy="636.665" r="12" fill="#7E8FDD"/>
<circle cx="360" cy="60.6649" r="9" fill="#7E8FDD"/>
<circle cx="428" cy="663.665" r="9" fill="#9CDFDF"/>
</svg>
