<svg width="343" height="482" viewBox="0 0 343 482" fill="none" xmlns="http://www.w3.org/2000/svg">
<path fill-rule="evenodd" clip-rule="evenodd" d="M242.426 83.7868C262.193 77.6756 283.817 84.2867 296.787 100.407C290.675 80.6398 297.287 59.0159 313.406 46.0458C293.64 52.157 272.016 45.5459 259.046 29.4261C265.157 49.1928 258.546 70.8167 242.426 83.7868ZM235.126 86.6813C257.33 73.8328 265.836 46.0126 254.612 22.9441L256.151 22.1257C269 44.3302 296.82 52.8357 319.888 41.6121L320.707 43.1513C298.502 55.9998 289.997 83.82 301.22 106.889L299.681 107.707C286.833 85.5024 259.012 76.9969 235.944 88.2205L235.126 86.6813Z" fill="#FDFDFF"/>
<path fill-rule="evenodd" clip-rule="evenodd" d="M242.426 83.7868C262.193 77.6756 283.817 84.2867 296.787 100.407C290.675 80.6398 297.287 59.0159 313.406 46.0458C293.64 52.157 272.016 45.5459 259.046 29.4261C265.157 49.1928 258.546 70.8167 242.426 83.7868ZM235.126 86.6813C257.33 73.8328 265.836 46.0126 254.612 22.9441L256.151 22.1257C269 44.3302 296.82 52.8357 319.888 41.6121L320.707 43.1513C298.502 55.9998 289.997 83.82 301.22 106.889L299.681 107.707C286.833 85.5024 259.012 76.9969 235.944 88.2205L235.126 86.6813Z" fill="#FDFDFF"/>
<path fill-rule="evenodd" clip-rule="evenodd" d="M298.686 91.8935C296.318 83.4894 291.772 72.4635 285.589 60.8363C279.407 49.209 272.809 39.2739 267.165 32.6114C264.334 29.269 261.805 26.824 259.743 25.3908C258.71 24.6727 257.873 24.2649 257.237 24.0912C256.611 23.9205 256.323 24.0098 256.2 24.0749C256.078 24.1399 255.843 24.3293 255.634 24.9432C255.423 25.568 255.293 26.4896 255.31 27.7478C255.345 30.2589 255.958 33.7229 257.146 37.9389C259.514 46.343 264.061 57.3689 270.243 68.9961C276.425 80.6234 283.023 90.5585 288.667 97.221C291.498 100.563 294.027 103.008 296.089 104.442C297.122 105.16 297.959 105.567 298.595 105.741C299.221 105.912 299.509 105.823 299.632 105.758C299.754 105.692 299.99 105.503 300.198 104.889C300.41 104.264 300.539 103.343 300.522 102.085C300.487 99.5734 299.874 96.1095 298.686 91.8935ZM300.451 107.298C305.539 104.592 299.575 83.424 287.129 60.0174C274.684 36.6107 260.47 19.8292 255.381 22.5347C250.293 25.2403 256.257 46.4084 268.703 69.815C281.148 93.2217 295.362 110.003 300.451 107.298Z" fill="#FDFDFF"/>
<path fill-rule="evenodd" clip-rule="evenodd" d="M298.686 91.8935C296.318 83.4894 291.772 72.4635 285.589 60.8363C279.407 49.209 272.809 39.2739 267.165 32.6114C264.334 29.269 261.805 26.824 259.743 25.3908C258.71 24.6727 257.873 24.2649 257.237 24.0912C256.611 23.9205 256.323 24.0098 256.2 24.0749C256.078 24.1399 255.843 24.3293 255.634 24.9432C255.423 25.568 255.293 26.4896 255.31 27.7478C255.345 30.2589 255.958 33.7229 257.146 37.9389C259.514 46.343 264.061 57.3689 270.243 68.9961C276.425 80.6234 283.023 90.5585 288.667 97.221C291.498 100.563 294.027 103.008 296.089 104.442C297.122 105.16 297.959 105.567 298.595 105.741C299.221 105.912 299.509 105.823 299.632 105.758C299.754 105.692 299.99 105.503 300.198 104.889C300.41 104.264 300.539 103.343 300.522 102.085C300.487 99.5734 299.874 96.1095 298.686 91.8935ZM300.451 107.298C305.539 104.592 299.575 83.424 287.129 60.0174C274.684 36.6107 260.47 19.8292 255.381 22.5347C250.293 25.2403 256.257 46.4084 268.703 69.815C281.148 93.2217 295.362 110.003 300.451 107.298Z" fill="#FDFDFF"/>
<path fill-rule="evenodd" clip-rule="evenodd" d="M250.939 85.6865C259.343 83.3186 270.369 78.7717 281.996 72.5894C293.623 66.4071 303.558 59.8088 310.221 54.1656C313.563 51.3346 316.008 48.8055 317.442 46.7432C318.16 45.71 318.567 44.8732 318.741 44.2369C318.912 43.6115 318.822 43.3227 318.757 43.2005C318.692 43.0782 318.503 42.8427 317.889 42.6345C317.264 42.4226 316.343 42.2928 315.085 42.3103C312.573 42.3453 309.109 42.958 304.893 44.1459C296.489 46.5138 285.463 51.0606 273.836 57.243C262.209 63.4253 252.274 70.0236 245.611 75.6668C242.269 78.4978 239.824 81.0269 238.391 83.0891C237.673 84.1224 237.265 84.9591 237.091 85.5955C236.92 86.2209 237.01 86.5096 237.075 86.6319C237.14 86.7542 237.329 86.9897 237.943 87.1979C238.568 87.4097 239.49 87.5396 240.748 87.5221C243.259 87.4871 246.723 86.8743 250.939 85.6865ZM235.535 87.4508C238.24 92.5392 259.408 86.5751 282.815 74.1296C306.222 61.684 323.003 47.47 320.298 42.3816C317.592 37.2932 296.424 43.2573 273.017 55.7028C249.611 68.1484 232.829 82.3624 235.535 87.4508Z" fill="#FDFDFF"/>
<path fill-rule="evenodd" clip-rule="evenodd" d="M250.939 85.6865C259.343 83.3186 270.369 78.7717 281.996 72.5894C293.623 66.4071 303.558 59.8088 310.221 54.1656C313.563 51.3346 316.008 48.8055 317.442 46.7432C318.16 45.71 318.567 44.8732 318.741 44.2369C318.912 43.6115 318.822 43.3227 318.757 43.2005C318.692 43.0782 318.503 42.8427 317.889 42.6345C317.264 42.4226 316.343 42.2928 315.085 42.3103C312.573 42.3453 309.109 42.958 304.893 44.1459C296.489 46.5138 285.463 51.0606 273.836 57.243C262.209 63.4253 252.274 70.0236 245.611 75.6668C242.269 78.4978 239.824 81.0269 238.391 83.0891C237.673 84.1224 237.265 84.9591 237.091 85.5955C236.92 86.2209 237.01 86.5096 237.075 86.6319C237.14 86.7542 237.329 86.9897 237.943 87.1979C238.568 87.4097 239.49 87.5396 240.748 87.5221C243.259 87.4871 246.723 86.8743 250.939 85.6865ZM235.535 87.4508C238.24 92.5392 259.408 86.5751 282.815 74.1296C306.222 61.684 323.003 47.47 320.298 42.3816C317.592 37.2932 296.424 43.2573 273.017 55.7028C249.611 68.1484 232.829 82.3624 235.535 87.4508Z" fill="#FDFDFF"/>
<path fill-rule="evenodd" clip-rule="evenodd" d="M7.66299 342.152C12.8106 340.561 18.4418 342.282 21.8194 346.48C20.228 341.332 21.9496 335.701 26.1475 332.324C20.9999 333.915 15.3687 332.193 11.9911 327.996C13.5825 333.143 11.8609 338.774 7.66299 342.152ZM5.76185 342.906C11.5443 339.56 13.7593 332.315 10.8364 326.308L11.2373 326.094C14.5832 331.877 21.8281 334.092 27.8355 331.169L28.0486 331.57C22.2662 334.916 20.0512 342.161 22.974 348.168L22.5732 348.381C19.2272 342.599 11.9824 340.384 5.97497 343.307L5.76185 342.906Z" fill="#FDFDFF"/>
<path fill-rule="evenodd" clip-rule="evenodd" d="M7.66299 342.152C12.8106 340.561 18.4418 342.282 21.8194 346.48C20.228 341.332 21.9496 335.701 26.1475 332.324C20.9999 333.915 15.3687 332.193 11.9911 327.996C13.5825 333.143 11.8609 338.774 7.66299 342.152ZM5.76185 342.906C11.5443 339.56 13.7593 332.315 10.8364 326.308L11.2373 326.094C14.5832 331.877 21.8281 334.092 27.8355 331.169L28.0486 331.57C22.2662 334.916 20.0512 342.161 22.974 348.168L22.5732 348.381C19.2272 342.599 11.9824 340.384 5.97497 343.307L5.76185 342.906Z" fill="#FDFDFF"/>
<path fill-rule="evenodd" clip-rule="evenodd" d="M22.3142 344.263C21.6975 342.075 20.5134 339.203 18.9035 336.175C17.2935 333.147 15.5752 330.56 14.1056 328.825C13.3684 327.955 12.7097 327.318 12.1727 326.945C11.9036 326.758 11.6857 326.652 11.52 326.606C11.3571 326.562 11.2819 326.585 11.2501 326.602C11.2182 326.619 11.1569 326.668 11.1027 326.828C11.0475 326.991 11.0137 327.231 11.0183 327.559C11.0274 328.212 11.187 329.115 11.4963 330.212C12.1129 332.401 13.297 335.272 14.907 338.3C16.517 341.328 18.2353 343.915 19.7049 345.651C20.4421 346.521 21.1007 347.158 21.6378 347.531C21.9068 347.718 22.1247 347.824 22.2905 347.869C22.4533 347.914 22.5285 347.89 22.5604 347.874C22.5922 347.857 22.6535 347.807 22.7077 347.647C22.7629 347.485 22.7967 347.245 22.7922 346.917C22.7831 346.263 22.6235 345.361 22.3142 344.263ZM22.7736 348.275C24.0987 347.57 22.5456 342.058 19.3045 335.962C16.0635 329.867 12.3619 325.496 11.0368 326.201C9.71173 326.906 11.2649 332.418 14.5059 338.514C17.7469 344.609 21.4485 348.979 22.7736 348.275Z" fill="#FDFDFF"/>
<path fill-rule="evenodd" clip-rule="evenodd" d="M22.3142 344.263C21.6975 342.075 20.5134 339.203 18.9035 336.175C17.2935 333.147 15.5752 330.56 14.1056 328.825C13.3684 327.955 12.7097 327.318 12.1727 326.945C11.9036 326.758 11.6857 326.652 11.52 326.606C11.3571 326.562 11.2819 326.585 11.2501 326.602C11.2182 326.619 11.1569 326.668 11.1027 326.828C11.0475 326.991 11.0137 327.231 11.0183 327.559C11.0274 328.212 11.187 329.115 11.4963 330.212C12.1129 332.401 13.297 335.272 14.907 338.3C16.517 341.328 18.2353 343.915 19.7049 345.651C20.4421 346.521 21.1007 347.158 21.6378 347.531C21.9068 347.718 22.1247 347.824 22.2905 347.869C22.4533 347.914 22.5285 347.89 22.5604 347.874C22.5922 347.857 22.6535 347.807 22.7077 347.647C22.7629 347.485 22.7967 347.245 22.7922 346.917C22.7831 346.263 22.6235 345.361 22.3142 344.263ZM22.7736 348.275C24.0987 347.57 22.5456 342.058 19.3045 335.962C16.0635 329.867 12.3619 325.496 11.0368 326.201C9.71173 326.906 11.2649 332.418 14.5059 338.514C17.7469 344.609 21.4485 348.979 22.7736 348.275Z" fill="#FDFDFF"/>
<path fill-rule="evenodd" clip-rule="evenodd" d="M9.8799 342.647C12.0685 342.03 14.9398 340.846 17.9677 339.236C20.9957 337.626 23.5829 335.908 25.318 334.438C26.1884 333.701 26.8251 333.042 27.1983 332.505C27.3853 332.236 27.4915 332.018 27.5367 331.853C27.5812 331.69 27.5579 331.614 27.541 331.583C27.5241 331.551 27.4748 331.489 27.3149 331.435C27.1522 331.38 26.9122 331.346 26.5845 331.351C25.9306 331.36 25.0285 331.52 23.9306 331.829C21.742 332.445 18.8707 333.63 15.8428 335.24C12.8148 336.85 10.2276 338.568 8.49252 340.037C7.62211 340.775 6.98539 341.433 6.61216 341.97C6.42516 342.239 6.31897 342.457 6.27373 342.623C6.22928 342.786 6.25254 342.861 6.26947 342.893C6.2864 342.925 6.33573 342.986 6.49561 343.04C6.6583 343.095 6.89832 343.129 7.22597 343.125C7.87991 343.116 8.78198 342.956 9.8799 342.647ZM5.86839 343.106C6.57296 344.431 12.0855 342.878 18.181 339.637C24.2765 336.396 28.6467 332.694 27.9421 331.369C27.2375 330.044 21.725 331.597 15.6295 334.838C9.53402 338.079 5.16382 341.781 5.86839 343.106Z" fill="#FDFDFF"/>
<path fill-rule="evenodd" clip-rule="evenodd" d="M9.8799 342.647C12.0685 342.03 14.9398 340.846 17.9677 339.236C20.9957 337.626 23.5829 335.908 25.318 334.438C26.1884 333.701 26.8251 333.042 27.1983 332.505C27.3853 332.236 27.4915 332.018 27.5367 331.853C27.5812 331.69 27.5579 331.614 27.541 331.583C27.5241 331.551 27.4748 331.489 27.3149 331.435C27.1522 331.38 26.9122 331.346 26.5845 331.351C25.9306 331.36 25.0285 331.52 23.9306 331.829C21.742 332.445 18.8707 333.63 15.8428 335.24C12.8148 336.85 10.2276 338.568 8.49252 340.037C7.62211 340.775 6.98539 341.433 6.61216 341.97C6.42516 342.239 6.31897 342.457 6.27373 342.623C6.22928 342.786 6.25254 342.861 6.26947 342.893C6.2864 342.925 6.33573 342.986 6.49561 343.04C6.6583 343.095 6.89832 343.129 7.22597 343.125C7.87991 343.116 8.78198 342.956 9.8799 342.647ZM5.86839 343.106C6.57296 344.431 12.0855 342.878 18.181 339.637C24.2765 336.396 28.6467 332.694 27.9421 331.369C27.2375 330.044 21.725 331.597 15.6295 334.838C9.53402 338.079 5.16382 341.781 5.86839 343.106Z" fill="#FDFDFF"/>
<circle cx="210" cy="21.0693" r="6" fill="#7E8FDD"/>
<circle cx="27" cy="445.069" r="12" fill="#7E8FDD"/>
<circle cx="301" cy="472.069" r="9" fill="#9CDFDF"/>
</svg>
