<svg version="1.1" xmlns="http://www.w3.org/2000/svg" width="1188" height="1024" viewBox="0 0 1188 1024">
<title>arrow</title>
<g id="icomoon-ignore">
</g>
<path fill="#7e8fdd" d="M1052.59 28.923c-2.29-1.451-4.538-2.56-6.787-3.712-27.533-14.559-58.192-22.118-89.301-22.016h-0.34c-34.025 0.053-67.449 9.049-96.956 26.098-29.503 17.049-54.063 41.558-71.25 71.096l-0.508 0.939c-13.91 24.115-22.34 51.027-24.691 78.805l-0.041 0.725h-407.26l-45.562-110.464c-10.229-25.004-28.986-45.522-52.902-57.87s-51.427-15.716-77.59-9.501l0.763-0.171-137.705 31.488 8.527 37.803 137.705-31.488c17.131-3.927 35.091-1.651 50.718 6.426s27.923 21.439 34.721 37.734l0.17 0.512 39.538 95.574h-258.61l432.416 434.899v318.423c-100.415 7.168-169.691 40.62-169.691 82.133v7.725h416.762v-7.725c0-41.472-69.403-75.092-169.693-82.133v-318.423l266.543-268.073c8.36 7.125 17.691 13.739 27.533 19.542l0.934 0.512c44.581 25.496 97.382 32.211 146.87 18.677 49.484-13.534 91.636-46.217 117.236-90.907 25.604-44.691 32.58-97.757 19.403-147.604s-45.433-92.423-89.719-118.427l-0.934-0.512-0.299-0.085zM1094.971 178.555l-105.804 0.299 52.646-92.16c28.754 22.307 47.78 54.963 53.072 91.093l0.086 0.768zM1008.513 67.237l-52.646 92.416-53.199-91.861c17.007-7.052 35.23-10.648 53.621-10.581 18.797 0 36.741 3.669 53.158 10.368l-0.934-0.341zM834.114 128.208c9.249-16.171 21.041-29.781 34.996-40.747l0.299-0.213 53.199 91.861-105.55 0.299c2.376-19.157 8.401-36.48 17.396-51.883l-0.34 0.64v0.043zM184.916 234.917h151.068l20.787 50.645h-121.457l-50.398-50.645zM816.763 285.605h-34.492v0.256h-384.052l-20.787-50.645h489.303l-49.971 50.389zM903.516 329.381l52.646-92.416 53.199 91.861c-15.823 6.741-34.234 10.666-53.535 10.666-18.838 0-36.827-3.712-53.244-10.496l0.934 0.384zM1077.916 268.709c-8.933 15.718-20.804 29.553-34.955 40.747l-0.295 0.213-53.199-91.861 105.546-0.256c-2.441 18.233-8.364 35.821-17.437 51.797l0.385-0.682-0.045 0.043z"></path>
</svg>
