<svg xmlns="http://www.w3.org/2000/svg" aria-hidden="true" style="position: absolute; width: 0; height: 0; overflow: hidden;">
    <defs>
        <symbol id="icon-facebook" viewBox="0 0 18 32">
            <path
                d="M14.45 5.602h2.924V.655a40.727 40.727 0 0 0-4.262-.218c-4.231 0-7.124 2.582-7.124 7.311v4.076H1.212v5.538h4.776v14.187h5.724V17.362h4.76l.716-5.538h-5.476V8.293c0-1.633.436-2.691 2.738-2.691z"
            />
        </symbol>
        <symbol id="icon-instagram" viewBox="0 0 32 32">
            <path
                d="M23.983 6.229a1.794 1.794 0 0 0-1.758 2.141 1.794 1.794 0 0 0 2.443 1.306 1.79 1.79 0 0 0 1.106-1.656 1.792 1.792 0 0 0-1.792-1.792zm6.869 3.614a11.33 11.33 0 0 0-.687-3.629 7.38 7.38 0 0 0-1.732-2.643 7.01 7.01 0 0 0-2.643-1.717 10.905 10.905 0 0 0-3.629-.702c-1.583-.09-2.091-.09-6.152-.09s-4.57 0-6.152.09a10.905 10.905 0 0 0-3.629.702 7.135 7.135 0 0 0-2.643 1.717 7.01 7.01 0 0 0-1.717 2.643 10.905 10.905 0 0 0-.702 3.629c-.09 1.583-.09 2.091-.09 6.153s0 4.57.09 6.152c.026 1.241.263 2.468.702 3.629.365 1 .952 1.904 1.717 2.643a7.135 7.135 0 0 0 2.643 1.717c1.161.439 2.388.676 3.629.702 1.583.09 2.091.09 6.152.09s4.57 0 6.152-.09a10.905 10.905 0 0 0 3.629-.702c1-.365 1.904-.952 2.643-1.717a7.243 7.243 0 0 0 1.732-2.643 11.33 11.33 0 0 0 .687-3.629c0-1.583.09-2.091.09-6.152s0-4.57-.09-6.153zm-2.688 12.126a8.39 8.39 0 0 1-.508 2.778 4.556 4.556 0 0 1-1.12 1.717 4.763 4.763 0 0 1-1.717 1.12 8.39 8.39 0 0 1-2.778.508c-1.493.075-2.046.09-5.973.09s-4.48 0-5.973-.09a8.566 8.566 0 0 1-2.897-.448 4.885 4.885 0 0 1-1.643-1.12 4.48 4.48 0 0 1-1.105-1.717 8.25 8.25 0 0 1-.597-2.837c0-1.493-.09-2.046-.09-5.973s0-4.48.09-5.973a8.281 8.281 0 0 1 .523-2.837 4.482 4.482 0 0 1 1.18-1.643 4.7 4.7 0 0 1 1.643-1.195 8.58 8.58 0 0 1 2.837-.508c1.493 0 2.046-.09 5.973-.09s4.48 0 5.973.09a8.39 8.39 0 0 1 2.778.508 4.56 4.56 0 0 1 1.777 1.195c.489.459.872 1.02 1.12 1.643a8.37 8.37 0 0 1 .508 2.837c.075 1.493.09 2.046.09 5.973s-.015 4.48-.09 5.973zM16.008 8.335a7.667 7.667 0 0 0-7.067 4.739 7.66 7.66 0 0 0 10.017 9.997 7.657 7.657 0 0 0 4.726-7.077 7.645 7.645 0 0 0-7.675-7.66zm0 12.634a4.979 4.979 0 0 1-4.595-3.07 4.975 4.975 0 0 1 3.624-6.78 4.974 4.974 0 0 1 5.564 6.781 4.965 4.965 0 0 1-2.691 2.691 4.97 4.97 0 0 1-1.903.379z"
            />
        </symbol>
        <symbol id="icon-youtube" viewBox="0 0 32 32">
            <path
                d="M24.24 6c-1.36-.08-4.16-.16-8.4-.16h-.56c-4.08 0-6.8.08-8.16.24-1.84.16-3.12.64-3.84 1.28-.64.56-1.12 1.6-1.28 2.96-.08.88-.16 2.72-.16 5.52v.4c0 2.64.08 4.48.24 5.36.24 1.28.64 2.24 1.44 2.8.8.64 2.16 1.04 4.08 1.2 1.36.08 4.16.16 8.4.16h.56c4.08 0 6.8-.08 8.16-.24 1.84-.16 3.12-.64 3.84-1.28.64-.56 1.12-1.6 1.28-2.96.08-.88.16-2.72.16-5.52v-.4c0-2.64-.08-4.48-.24-5.36-.24-1.28-.64-2.24-1.44-2.8-.8-.64-2.16-1.04-4.08-1.2zm-3.12 9.839-8.8 5.28v-10.56l8.8 5.28z"
            />
        </symbol>
        <symbol id="icon-trash" viewBox="0 0 32 32">
            <path
                stroke-linecap="round"
                stroke-linejoin="round"
                stroke-width="2.667"
                d="M21.333 8V6.933c0-1.493 0-2.24-.291-2.811a2.666 2.666 0 0 0-1.165-1.165c-.57-.291-1.317-.291-2.811-.291h-2.133c-1.493 0-2.24 0-2.811.291-.502.256-.91.664-1.165 1.165-.291.57-.291 1.317-.291 2.811V8m2.667 7.333V22m5.334-6.667V22M4 8h24m-2.667 0v14.933c0 2.24 0 3.36-.436 4.216a3.991 3.991 0 0 1-1.748 1.748c-.856.436-1.976.436-4.216.436h-5.867c-2.24 0-3.36 0-4.216-.436a3.991 3.991 0 0 1-1.748-1.748c-.436-.856-.436-1.976-.436-4.216V8"
            />
        </symbol>
        <symbol id="icon-heart" viewBox="0 0 32 32">
            <path
                stroke-linecap="round"
                stroke-linejoin="round"
                stroke-width="2.667"
                d="M27.787 6.146a7.326 7.326 0 0 0-10.373 0l-1.413 1.413-1.413-1.413a7.333 7.333 0 0 0-10.374 0 7.333 7.333 0 0 0 0 10.374l11.787 11.787L27.788 16.52a7.345 7.345 0 0 0 2.15-5.187 7.33 7.33 0 0 0-2.15-5.187z"
            />
        </symbol>
        <symbol id="icon-search" viewBox="0 0 32 32">
            <path
                d="m29.092 31.514-6.85-6.862c-1.077.935-2.334 1.663-3.77 2.185s-2.962.782-4.578.782c-3.877 0-7.163-1.349-9.855-4.046S0 17.621 0 13.809c0-3.812 1.346-7.067 4.039-9.764S9.999-.001 13.84-.001c3.806 0 7.046 1.349 9.721 4.046s4.012 5.952 4.012 9.764c0 1.546-.251 3.039-.754 4.477s-1.257 2.787-2.262 4.046l6.958 6.862c.323.288.485.656.485 1.106s-.18.854-.539 1.214c-.323.324-.718.486-1.185.486s-.862-.162-1.185-.486zM13.84 24.383c2.908 0 5.385-1.034 7.432-3.102s3.07-4.558 3.07-7.471-1.023-5.403-3.07-7.471c-2.046-2.068-4.524-3.102-7.432-3.102-2.944 0-5.448 1.034-7.513 3.102S3.23 10.897 3.23 13.81c0 2.913 1.032 5.403 3.097 7.471s4.569 3.102 7.513 3.102z"
            />
        </symbol>
        <symbol id="icon-bg-hero" viewBox="0 0 26 32"  >
            <path
                fill="#242424"
                d="M19.187 5.893a3.564 3.564 0 0 1 3.823 1.169 3.564 3.564 0 0 1 1.169-3.823 3.564 3.564 0 0 1-3.823-1.169 3.564 3.564 0 0 1-1.169 3.823zm-.513.203a3.44 3.44 0 0 0 1.371-4.483l.108-.058a3.44 3.44 0 0 0 4.483 1.371l.058.108a3.44 3.44 0 0 0-1.371 4.483l-.108.058a3.44 3.44 0 0 0-4.483-1.37l-.058-.108z"
                style="fill: var(--color2, #242424);"
            />
            <path
                fill="#242424"
                d="M23.144 6.463c.084.296.127.54.129.717.001.088-.008.153-.023.197s-.031.056-.04.061-.029.011-.073-.001a.602.602 0 0 1-.176-.091 2.985 2.985 0 0 1-.522-.508c-.397-.469-.861-1.167-1.296-1.985s-.755-1.593-.921-2.184a2.932 2.932 0 0 1-.129-.717c-.001-.089.008-.153.023-.197s.031-.056.04-.061c.009-.005.029-.011.073.001s.104.041.176.091c.145.101.323.273.522.508.397.469.861 1.167 1.296 1.985s.755 1.593.921 2.184zm.124 1.083c.358-.19-.062-1.679-.937-3.325s-1.875-2.826-2.233-2.636c-.358.19.062 1.679.937 3.325s1.875 2.826 2.233 2.636z"
                style="fill: var(--color2, #242424);"
            />
            <path
                fill="#242424"
                d="M19.786 6.027c-.297.084-.54.127-.717.129-.089.001-.153-.008-.197-.023s-.056-.031-.061-.04c-.005-.009-.011-.029.001-.073s.041-.104.091-.176c.101-.145.273-.323.508-.522.469-.397 1.167-.861 1.985-1.296s1.593-.755 2.184-.921c.297-.084.54-.127.717-.129.088-.001.153.008.197.023s.057.031.061.04.011.029-.001.073a.602.602 0 0 1-.091.176 2.985 2.985 0 0 1-.508.522c-.469.397-1.167.861-1.985 1.296s-1.593.755-2.184.921zm-1.084.124c.19.358 1.679-.062 3.325-.937s2.826-1.875 2.636-2.233c-.19-.358-1.679.062-3.325.937s-2.826 1.875-2.636 2.233zM.776 20.581a1.32 1.32 0 0 1 1.42.421 1.322 1.322 0 0 1 .421-1.421 1.32 1.32 0 0 1-1.42-.421 1.32 1.32 0 0 1-.421 1.42zm-.19.078c.576-.34.791-1.067.493-1.665l.04-.022c.34.576 1.067.791 1.665.493l.022.04a1.274 1.274 0 0 0-.493 1.665l-.04.022a1.274 1.274 0 0 0-1.665-.493l-.022-.04z"
                style="fill: var(--color2, #242424);"
            />
            <path
                fill="#242424"
                d="M2.244 20.78c.032.11.049.2.05.265.001.033-.002.057-.008.073s-.011.021-.015.023-.011.004-.027 0a.222.222 0 0 1-.066-.033 1.102 1.102 0 0 1-.195-.186c-.149-.172-.323-.43-.487-.731s-.285-.588-.348-.806a1.08 1.08 0 0 1-.05-.265c-.001-.033.002-.057.008-.073s.011-.021.015-.023.011-.004.027 0a.222.222 0 0 1 .066.033c.054.037.121.1.195.186.149.172.323.43.487.731s.285.588.348.806zm.049.401c.132-.072-.028-.622-.358-1.229s-.704-1.041-.836-.97c-.132.072.028.622.358 1.229s.704 1.041.836.97z"
                style="fill: var(--color2, #242424);"
            />
            <path
                fill="#242424"
                d="M.998 20.629c-.11.032-.2.049-.265.05-.033.001-.057-.002-.073-.008s-.021-.011-.023-.015c-.002-.003-.004-.011 0-.027s.015-.038.033-.066c.037-.054.1-.121.186-.195.172-.149.43-.323.731-.487s.588-.285.806-.348c.11-.032.2-.049.265-.05.033-.001.057.002.073.008s.021.011.023.015.004.011 0 .027a.234.234 0 0 1-.033.066c-.037.054-.1.121-.186.195-.172.149-.43.323-.731.487s-.588.285-.806.348zm-.401.049c.072.132.622-.028 1.229-.358s1.041-.704.97-.836c-.072-.132-.622.028-1.229.358s-1.041.704-.97.836z"
                style="fill: var(--color2, #242424);"
            />
            <path fill="#7e8fdd" d="M6.894 30.272a.57.57 0 1 1-1.142 0 .57.57 0 0 1 1.142 0zM17.545 2.885a.428.428 0 1 1-.857-.001.428.428 0 0 1 .857.001z" style="fill: var(--color3, #7e8fdd);" />
            <path fill="#9cdfdf" d="M20.779 31.556a.428.428 0 1 1-.857-.001.428.428 0 0 1 .857.001z" style="fill: var(--color4, #9cdfdf);" />
        </symbol>
        <symbol id="icon-close-modal" viewBox="0 0 24 24">
            <path d="M16.5 5.5L5.5 16.5" stroke-width="2" stroke-linecap="round" stroke-linejoin="round"/>
            <path d="M5.5 5.5L16.5 16.5" stroke-width="2" stroke-linecap="round" stroke-linejoin="round"/>
        </symbol>
        <symbol id="icon-burger" viewBox="0 0 32 32">
            <path stroke-linecap="round" stroke-linejoin="round" stroke-miterlimit="4" stroke-width="2" d="M28 13.334H4M28 8H4M28 18.666H4M28 24H4" />
        </symbol>
        <symbol id="icon-dark" viewBox="0 0 60 32">
            <path fill="#9cdfdf" stroke="none" d="M16 .889h28.444C52.79.889 59.555 7.654 59.555 16S52.79 31.111 44.444 31.111H16C7.654 31.111.889 24.346.889 16S7.654.889 16 .889z" style="fill: var(--color4, #9cdfdf);" />
            <path fill="#fdfdff" stroke="none" d="M44.444 3.556c6.873 0 12.444 5.572 12.444 12.444v.002c0 6.873-5.572 12.444-12.444 12.444S32 22.874 32 16.002V16c0-6.873 5.572-12.444 12.444-12.444z" style="fill: var(--color1, #fdfdff);" />
            <path
                fill="none"
                stroke-width="1.778"
                d="M16 .889h28.444C52.79.889 59.555 7.654 59.555 16S52.79 31.111 44.444 31.111H16C7.654 31.111.889 24.346.889 16S7.654.889 16 .889z"
                style="stroke: var(--color3);"
            />
        </symbol>
        <symbol id="icon-light" viewBox="0 0 60 32">
            <path fill="#9cdfdf" stroke="none" d="M16 3.556c6.873 0 12.444 5.572 12.444 12.444v.002c0 6.873-5.572 12.444-12.444 12.444S3.556 22.874 3.556 16.002V16C3.556 9.127 9.128 3.556 16 3.556z" style="fill: var(--color4, #9cdfdf);" />
            <path
                fill="none"
                stroke-width="1.778"
                d="M16 .889h28.444C52.79.889 59.555 7.654 59.555 16S52.79 31.111 44.444 31.111H16C7.654 31.111.889 24.346.889 16S7.654.889 16 .889z"
                style="stroke: var(--color2);"
            />
        </symbol>
        <symbol id="icon-cocktail" viewBox="0 0 37 32">
            <path            
                d="M32.893.904c-.072-.045-.142-.08-.212-.116A5.93 5.93 0 0 0 29.89.1h-.011c-1.063.002-2.108.283-3.03.816s-1.689 1.299-2.227 2.222l-.016.029a5.937 5.937 0 0 0-.772 2.463l-.001.023H11.106L9.682 2.201C9.362 1.42 8.776.778 8.029.393S6.422-.098 5.604.096l.024-.005-4.303.984.266 1.181 4.303-.984c.535-.123 1.097-.052 1.585.201s.873.67 1.085 1.179l.005.016 1.236 2.987H1.723l13.513 13.591v9.951c-3.138.224-5.303 1.269-5.303 2.567v.241h13.024v-.241c0-1.296-2.169-2.347-5.303-2.567v-9.951l8.329-8.377c.261.223.553.429.86.611l.029.016c1.393.797 3.043 1.007 4.59.584s2.864-1.444 3.664-2.841c.8-1.397 1.018-3.055.606-4.613s-1.42-2.888-2.804-3.701l-.029-.016-.009-.003zm1.325 4.676-3.306.009 1.645-2.88a4.413 4.413 0 0 1 1.659 2.847l.003.024zm-2.702-3.479-1.645 2.888-1.662-2.871a4.341 4.341 0 0 1 1.676-.331c.587 0 1.148.115 1.661.324l-.029-.011zm-5.45 1.905a4.353 4.353 0 0 1 1.094-1.273l.009-.007 1.662 2.871-3.298.009a4.21 4.21 0 0 1 .544-1.621l-.011.02v.001zM5.779 7.341H10.5l.65 1.583H7.354L5.779 7.341zm19.745 1.584h-1.078v.008H12.444l-.65-1.583h15.291l-1.562 1.575zm2.711 1.368 1.645-2.888 1.662 2.871a4.29 4.29 0 0 1-1.673.333 4.346 4.346 0 0 1-1.664-.328l.029.012zm5.45-1.896c-.279.491-.65.924-1.092 1.273l-.009.007-1.662-2.871 3.298-.008a4.473 4.473 0 0 1-.545 1.619l.012-.021-.001.001z"
            />
        </symbol>
        <symbol id="icon-arrow" viewBox="0 0 32 32">
            <path fill="none"  stroke-linecap="round" stroke-linejoin="round" stroke-width="2.667" d="m8 12 8 8 8-8" style="stroke: var(--color3);" />
        </symbol>
        <symbol id="icon-star" viewBox="0 0 32 32">
            <path
                d="M3.294 27.725c8.884-2.746 18.602.225 24.431 7.469-2.746-8.884.225-18.602 7.469-24.431-8.884 2.747-18.602-.225-24.431-7.469 2.746 8.884-.225 18.602-7.469 24.431zM.013 29.026C9.992 23.252 13.815 10.748 8.771.381l.692-.368c5.774 9.979 18.278 13.802 28.645 8.758l.368.692c-9.979 5.774-13.802 18.278-8.758 28.645l-.692.368C23.252 28.497 10.748 24.674.381 29.718l-.368-.692z"
            />
            <path
                d="M28.579 31.368c.534 1.895.809 3.452.825 4.58.008.565-.05.98-.146 1.26-.094.276-.199.361-.254.39s-.185.069-.466-.007c-.286-.078-.662-.261-1.126-.584-.927-.644-2.064-1.743-3.336-3.245-2.536-2.994-5.502-7.459-8.28-12.685S10.974 10.896 9.91 7.119c-.534-1.895-.809-3.452-.825-4.58-.008-.565.05-.98.146-1.26.094-.276.199-.361.254-.39s.185-.069.466.007c.286.078.662.261 1.126.584.927.644 2.063 1.743 3.336 3.245 2.536 2.994 5.502 7.459 8.28 12.685s4.822 10.181 5.886 13.958zm.792 6.923c2.287-1.216-.393-10.729-5.987-21.249S11.403-1.02 9.116.196s.394 10.729 5.987 21.249 11.982 18.062 14.268 16.846z"
            />
            <path
                d="M7.12 28.579c-1.895.534-3.452.809-4.58.825-.565.008-.98-.051-1.26-.146-.276-.094-.361-.2-.39-.254s-.069-.185.007-.466c.078-.286.261-.662.584-1.126.644-.927 1.743-2.063 3.245-3.336 2.994-2.536 7.459-5.502 12.685-8.28s10.181-4.822 13.958-5.886c1.895-.534 3.452-.809 4.58-.825.565-.008.98.05 1.26.146.276.094.361.199.39.254s.069.185-.007.466c-.078.286-.261.662-.584 1.126-.644.927-1.743 2.063-3.245 3.336-2.994 2.536-7.459 5.502-12.685 8.28S10.897 27.515 7.12 28.579zm-6.923.793c1.216 2.287 10.729-.394 21.249-5.987S39.508 11.404 38.292 9.117c-1.216-2.287-10.729.394-21.249 5.987S-1.019 27.085.197 29.372z"
            />
        </symbol>
        <symbol id="icon-placeholder-empty-list" viewBox="0 0 37 32">
            <path
                fill="#e6e6e6"
                d="M18.824 4.039a.943.943 0 0 0-.896.89h-.118s.035-.814-.896-.857l.005-.129c.074 0 .765-.031.867-.866h.118s-.08.752.92.87v.091zM6.251 17.802a.944.944 0 0 0-.896.89h-.118s.035-.814-.896-.857l.005-.129c.073 0 .765-.031.867-.866h.118s-.08.752.92.87v.091zM37.254 17.302a.944.944 0 0 0-.896.89h-.118s.035-.814-.896-.857l.005-.129c.074 0 .765-.031.867-.866h.118s-.08.752.92.87v.091zM13.973 6.969a.679.679 0 0 0-.645.64h-.084s.025-.585-.645-.616l.003-.093c.053 0 .551-.023.623-.622h.084s-.057.54.661.626v.066h.001zM3.019 13.634a.677.677 0 0 0-.644.64h-.084s.025-.585-.644-.616l.003-.093c.053 0 .551-.023.623-.622h.084s-.057.54.661.626v.066h.001zM12.44 23.968a.679.679 0 0 0-.645.641h-.084s.025-.585-.645-.616l.003-.093c.053 0 .551-.023.623-.622h.084s-.057.541.661.625v.066l.001-.001zM34.964 12.677a.439.439 0 0 0-.417.415h-.055s.016-.379-.417-.4l.003-.06c.035 0 .356-.014.404-.403h.055s-.037.351.428.405v.042zM34.207 24.104a.68.68 0 0 0-.645.64h-.084s.025-.585-.644-.616l.003-.093c.053 0 .551-.023.623-.622h.085s-.057.54.661.625v.066h.001zM13.826.631a.535.535 0 0 0-.507.503h-.067s.019-.46-.506-.485l.003-.073c.041 0 .432-.018.49-.489h.067s-.046.425.519.491v.051h.001zM33.96 2.597a.535.535 0 0 0-.507.503h-.067s.019-.46-.506-.485l.003-.072c.041 0 .433-.018.49-.489h.067s-.046.425.519.491v.051h.001zM10.163 19.317a.311.311 0 0 0-.296.293h-.039s.012-.268-.296-.282l.002-.042c.024 0 .253-.01.286-.286h.039s-.026.248.303.287v.03zM7.166 2.894a.312.312 0 0 0-.296.293h-.039s.012-.268-.296-.282l.002-.042c.024 0 .253-.01.286-.286h.039s-.026.248.303.287v.03zM2.832 23.475a.496.496 0 0 0-.47.466H2.3s.019-.427-.469-.449l.003-.067c.039 0 .401-.016.454-.454h.062s-.042.394.481.455v.048zM33.421 7.692a.312.312 0 0 0-.296.293h-.039s.012-.268-.296-.282l.002-.042c.025 0 .253-.01.286-.286h.039s-.026.248.303.287v.03zM24.915.317a.312.312 0 0 0-.296.293h-.039s.012-.268-.296-.282l.002-.042c.025 0 .253-.01.286-.286h.039s-.026.248.303.287v.03zM17.644 21.694a.312.312 0 0 0-.296.293h-.039s.012-.268-.296-.282l.002-.042c.024 0 .253-.01.286-.286h.039s-.026.248.303.287v.03z"
                style="fill: var(--color1, #e6e6e6);"
            />
            <path fill="#fdfdff" d="M35.287 30.541c0 .286-7.899.517-17.644.517s-17.644-.232-17.644-.517 7.899-.517 17.644-.517c9.744 0 17.644.232 17.644.517z" style="fill: var(--color2, #fdfdff);" />
            <path
                fill="#9cdfdf"
                d="M19.704 9.826s.1 3.674.349 5.581 1.896 15.022 1.896 15.022h4.441V1.966h-3.093v3.209s-2.595.698-2.495 3.768l-1.097.883zM33.076 9.826s-.1 3.674-.349 5.581-1.896 15.022-1.896 15.022H26.39V1.966h3.093v3.209s2.595.698 2.495 3.768l1.097.883z"
                style="fill: var(--color3, #9cdfdf);"
            />
            <path
                fill="#fdfdff"
                d="M19.704 9.826s.1 3.674.349 5.581 1.896 15.022 1.896 15.022h4.441V1.966h-3.093v3.209s-2.595.698-2.495 3.768l-1.097.883zM33.076 9.826s-.1 3.674-.349 5.581-1.896 15.022-1.896 15.022H26.39V1.966h3.093v3.209s2.595.698 2.495 3.768l1.097.883z"
                opacity=".5"
                style="fill: var(--color2, #fdfdff);"
            />
            <path fill="#fdfdff" d="m23.876 5.165-.044-3.199h1.536l-.275 3.199h-1.217zM23.61 9.826h-2.986l2.423 20.604h2.873L23.61 9.826z" opacity=".3" style="fill: var(--color2, #fdfdff);" />
            <path fill="#9cdfdf" d="M19.704 9.826c4.283-.026 9.089-.026 13.372 0-4.283.026-9.089.026-13.372 0z" style="fill: var(--color3, #9cdfdf);" />
            <path fill="#fdfdff" d="M22.049 8.92s-.097-1.559.414-2.385 1.412-1.37 1.412-1.37h1.217s-1.796.81-1.526 3.755h-1.518z" opacity=".3" style="fill: var(--color2, #fdfdff);" />
            <path fill="#9cdfdf" d="M4.914 30.43s.391-1.673.559-2.454.335-1.394.335-1.394h2.403s.584 2.636.759 3.703l.023.145h-4.08z" style="fill: var(--color3, #9cdfdf);" />
            <path fill="#fdfdff" d="M4.914 30.43s.391-1.673.559-2.454.335-1.394.335-1.394h2.403s.584 2.636.759 3.703l.023.145h-4.08z" opacity=".7" style="fill: var(--color2, #fdfdff);" />
            <path fill="#fdfdff" d="m5.507 30.43.479-3.473h.74l-.121 3.473H5.507z" opacity=".4" style="fill: var(--color2, #fdfdff);" />
            <path fill="#9cdfdf" d="M4.718 22.147s.084 1.171.307 2.203.475 2.621.475 2.621h2.934s.391-2.175.53-2.705.252-2.119.252-2.119l-4.498.001z" style="fill: var(--color3, #9cdfdf);" />
            <path fill="#fdfdff" d="M4.718 22.147s.084 1.171.307 2.203.475 2.621.475 2.621h2.934s.391-2.175.53-2.705.252-2.119.252-2.119l-4.498.001z" opacity=".7" style="fill: var(--color2, #fdfdff);" />
            <path fill="#242424" d="M8.293 26.975H5.684l-.03.211h2.695l-.057-.211z" opacity=".3" style="fill: var(--color4, #242424);" />
            <path fill="#fdfdff" d="m5.296 22.147.69 4.809h.74s-.656-4.027-.589-4.809h-.841z" opacity=".4" style="fill: var(--color2, #fdfdff);" />
            <path fill="#7e8fdd" d="M24.552 27.462c.578-2.185-.833-4.451-3.151-5.062s-4.665.665-5.243 2.85c-.578 2.185.833 4.451 3.151 5.062s4.666-.665 5.244-2.85z" style="fill: var(--color5, #7e8fdd);" />
            <path fill="#242424" d="M24.552 27.462c.578-2.185-.833-4.451-3.151-5.062s-4.665.665-5.243 2.85c-.578 2.185.833 4.451 3.151 5.062s4.666-.665 5.244-2.85z" opacity=".3" style="fill: var(--color4, #242424);" />
            <path fill="#7e8fdd" d="M23.453 28.675c1.319-1.836.897-4.392-.943-5.709s-4.401-.895-5.72.941c-1.319 1.836-.897 4.392.943 5.709s4.401.895 5.72-.941z" style="fill: var(--color5, #7e8fdd);" />
            <path fill="#7e8fdd" d="M20.378 30.204c2.168-.145 3.808-2.016 3.664-4.18s-2.02-3.801-4.188-3.657c-2.168.145-3.808 2.016-3.664 4.18s2.02 3.801 4.188 3.657z" style="fill: var(--color5, #7e8fdd);" />
            <path fill="#fdfdff" d="M20.378 30.204c2.168-.145 3.808-2.016 3.664-4.18s-2.02-3.801-4.188-3.657c-2.168.145-3.808 2.016-3.664 4.18s2.02 3.801 4.188 3.657z" opacity=".8" style="fill: var(--color2, #fdfdff);" />
            <path
                fill="#7e8fdd"
                d="M16.584 25.769c-.1.666-.008 1.346.266 1.962a.224.224 0 0 0 .297.112l.02-.01 2.353-1.368a.1.1 0 0 0 .043-.136.097.097 0 0 0-.066-.051l-2.637-.693a.224.224 0 0 0-.272.159l-.005.025h.001zM19.668 26.719l-2.354 1.367a.223.223 0 0 0-.066.325c.401.541.949.957 1.578 1.2a.224.224 0 0 0 .297-.15l.695-2.629a.1.1 0 0 0-.149-.113v-.001zM20.103 26.908l-.695 2.629a.222.222 0 0 0 .185.277 3.562 3.562 0 0 0 1.965-.266.222.222 0 0 0 .115-.293l-.012-.023-1.371-2.349a.101.101 0 0 0-.187.025v-.001zM16.937 25.301l2.633.693a.103.103 0 0 0 .125-.072.103.103 0 0 0-.01-.077l-1.371-2.349a.224.224 0 0 0-.305-.08l-.02.013c-.542.401-.96.946-1.202 1.574a.223.223 0 0 0 .128.289l.024.008h-.001zM20.543 26.735l1.371 2.349a.224.224 0 0 0 .305.08c.007-.004.014-.008.02-.014.542-.4.96-.947 1.202-1.575a.221.221 0 0 0-.152-.296l-2.634-.694a.102.102 0 0 0-.114.151l.001-.001zM20.125 25.675l.695-2.629a.223.223 0 0 0-.16-.273l-.024-.005a3.557 3.557 0 0 0-1.966.267.223.223 0 0 0-.114.294l.011.022 1.371 2.349a.102.102 0 0 0 .186-.025h.001zM20.559 25.863l2.353-1.368a.22.22 0 0 0 .067-.324 3.562 3.562 0 0 0-1.578-1.2.223.223 0 0 0-.297.151l-.695 2.629a.102.102 0 0 0 .151.114l-.001-.001zM20.732 26.302l2.633.693a.222.222 0 0 0 .272-.157c.003-.008.004-.018.005-.026.1-.666.008-1.346-.265-1.962a.224.224 0 0 0-.297-.112l-.02.011-2.354 1.367a.101.101 0 0 0-.035.139c.014.023.036.04.062.047z"
                style="fill: var(--color5, #7e8fdd);"
            />
            <path
                fill="#fdfdff"
                d="M16.584 25.769c-.1.666-.008 1.346.266 1.963a.224.224 0 0 0 .297.112l.02-.01 2.353-1.368a.1.1 0 0 0 .043-.136.097.097 0 0 0-.066-.051l-2.637-.693a.223.223 0 0 0-.272.159l-.005.024h.001zM19.668 26.719l-2.354 1.367a.223.223 0 0 0-.066.325c.401.541.949.957 1.578 1.2a.224.224 0 0 0 .297-.15l.695-2.629a.1.1 0 0 0-.149-.113v-.001zM20.103 26.908l-.695 2.629a.222.222 0 0 0 .185.277 3.562 3.562 0 0 0 1.965-.266.222.222 0 0 0 .115-.293c-.003-.008-.008-.015-.012-.023l-1.371-2.349a.101.101 0 0 0-.187.025v-.001zM16.937 25.301l2.633.693a.103.103 0 0 0 .125-.072.103.103 0 0 0-.01-.077l-1.371-2.349a.223.223 0 0 0-.305-.08l-.02.013c-.542.401-.96.946-1.202 1.574a.223.223 0 0 0 .128.289l.024.008h-.001zM20.543 26.735l1.371 2.349a.224.224 0 0 0 .305.08c.007-.004.014-.008.02-.014.542-.4.96-.947 1.202-1.575a.221.221 0 0 0-.127-.288c-.008-.003-.016-.006-.025-.007l-2.634-.694a.103.103 0 0 0-.125.072.102.102 0 0 0 .011.078l.001-.001zM20.125 25.675l.695-2.629a.223.223 0 0 0-.16-.273l-.024-.005a3.557 3.557 0 0 0-1.966.267.223.223 0 0 0-.114.294l.011.022 1.371 2.349a.102.102 0 0 0 .186-.025h.001zM20.559 25.863l2.353-1.368a.22.22 0 0 0 .08-.304l-.013-.02a3.562 3.562 0 0 0-1.578-1.2.223.223 0 0 0-.297.151l-.695 2.628a.102.102 0 0 0 .151.114l-.001-.001zM20.732 26.302l2.633.693a.222.222 0 0 0 .272-.157c.003-.008.004-.018.005-.026.1-.666.008-1.346-.265-1.962a.224.224 0 0 0-.297-.112l-.02.011-2.354 1.367a.101.101 0 0 0 .027.185z"
                opacity=".3"
                style="fill: var(--color2, #fdfdff);"
            />
            <path fill="#7e8fdd" d="M18.145 26.48c.112-.014.209.017.216.071s-.078.109-.191.123c-.112.014-.209-.017-.216-.071s.078-.11.191-.123z" style="fill: var(--color5, #7e8fdd);" />
            <path fill="#fdfdff" d="M18.145 26.48c.112-.014.209.017.216.071s-.078.109-.191.123c-.112.014-.209-.017-.216-.071s.078-.11.191-.123z" opacity=".6" style="fill: var(--color2, #fdfdff);" />
            <path fill="#7e8fdd" d="M18.824 27.57c.084-.075.182-.103.218-.063s-.003.134-.088.209c-.085.074-.182.104-.219.063s.006-.131.089-.209z" style="fill: var(--color5, #7e8fdd);" />
            <path fill="#fdfdff" d="M18.824 27.57c.084-.075.182-.103.218-.063s-.003.134-.088.209c-.085.074-.182.104-.219.063s.006-.131.089-.209z" opacity=".6" style="fill: var(--color2, #fdfdff);" />
            <path fill="#7e8fdd" d="M18.781 28.475c.067-.091.155-.14.199-.108s.025.131-.04.223c-.066.092-.156.14-.199.108s-.026-.131.041-.223z" style="fill: var(--color5, #7e8fdd);" />
            <path fill="#fdfdff" d="M18.781 28.475c.067-.091.155-.14.199-.108s.025.131-.04.223c-.066.092-.156.14-.199.108s-.026-.131.041-.223z" opacity=".6" style="fill: var(--color2, #fdfdff);" />
            <path fill="#7e8fdd" d="M21.276 24.023c.061-.096.146-.15.192-.122s.035.129-.025.226c-.06.097-.146.15-.192.122s-.033-.128.025-.226z" style="fill: var(--color5, #7e8fdd);" />
            <path fill="#fdfdff" d="M21.276 24.023c.061-.096.146-.15.192-.122s.035.129-.025.226c-.06.097-.146.15-.192.122s-.033-.128.025-.226z" opacity=".6" style="fill: var(--color2, #fdfdff);" />
            <path fill="#7e8fdd" d="M21.251 24.907c.066-.092.155-.14.199-.109s.025.131-.041.223-.155.14-.199.109-.026-.131.041-.223z" style="fill: var(--color5, #7e8fdd);" />
            <path
                fill="#fdfdff"
                d="M21.251 24.907c.066-.092.155-.14.199-.109s.025.131-.041.223-.155.14-.199.109-.026-.131.041-.223zM22.422 26.111c.112-.018.209.011.218.064s-.075.11-.188.129c-.111.019-.209-.011-.218-.064s.074-.111.188-.129zM18.157 24.639c-.072-.088-.095-.186-.053-.22s.134.01.205.097c.072.088.096.186.053.22s-.133-.009-.205-.097zM18.426 25.375c-.113-.006-.202-.056-.199-.109s.098-.092.21-.086c.113.006.202.056.199.11s-.097.093-.21.086v-.001zM19.483 23.987c-.012-.112.024-.207.077-.213.053-.005.106.082.117.194s-.024.207-.077.213c-.053.005-.106-.081-.117-.194z"
                opacity=".6"
                style="fill: var(--color2, #fdfdff);"
            />
            <path fill="#7e8fdd" d="M20.639 28.754c-.012-.111.022-.207.074-.213s.107.081.119.194c.013.112-.022.207-.074.213s-.106-.081-.119-.194z" style="fill: var(--color5, #7e8fdd);" />
            <path fill="#fdfdff" d="M20.639 28.754c-.012-.111.022-.207.074-.213s.107.081.119.194c.013.112-.022.207-.074.213s-.106-.081-.119-.194z" opacity=".6" style="fill: var(--color2, #fdfdff);" />
            <path fill="#7e8fdd" d="M21.516 27.356c-.095-.063-.146-.15-.117-.195s.131-.031.226.031.146.149.117.195-.132.03-.226-.031z" style="fill: var(--color5, #7e8fdd);" />
            <path fill="#fdfdff" d="M21.516 27.356c-.095-.063-.146-.15-.117-.195s.131-.031.226.031.146.149.117.195-.132.03-.226-.031z" opacity=".6" style="fill: var(--color2, #fdfdff);" />
            <path
                fill="#7e8fdd"
                d="M22.297 10.996H6.42s.091 4.781 5.064 5.828c0 0-.33 3.322 2.464 3.659v7.954c-2.952.189-4.185 1.994-4.185 1.994h9.555s-1.395-1.806-4.366-1.994v-7.979c2.599-.456 2.282-3.633 2.282-3.633 4.973-1.047 5.064-5.828 5.064-5.828v-.001z"
                style="fill: var(--color5, #7e8fdd);"
            />
            <path
                fill="#fdfdff"
                d="M22.297 10.996H6.42s.091 4.781 5.064 5.828c0 0-.33 3.322 2.464 3.659v7.954c-2.952.189-4.185 1.994-4.185 1.994h9.555s-1.395-1.806-4.366-1.994v-7.979c2.599-.456 2.282-3.633 2.282-3.633 4.973-1.047 5.064-5.828 5.064-5.828v-.001z"
                opacity=".7"
                style="fill: var(--color2, #fdfdff);"
            />
            <path fill="#fdfdff" d="M21.459 10.996H7.662s.145 4.25 4.467 5.164c0 0-.473 3.613 2.35 3.613h.209c2.259-.398 2.004-3.708 2.004-3.708 4.562-1.133 4.768-5.07 4.768-5.07h-.001z" opacity=".4" style="fill: var(--color2, #fdfdff);" />
            <path fill="#7e8fdd" d="M22.297 10.996c0 .305-3.554.553-7.938.553s-7.938-.248-7.938-.553 3.554-.553 7.938-.553 7.938.248 7.938.553z" opacity=".9" style="fill: var(--color5, #7e8fdd);" />
            <path fill="#fdfdff" d="M22.297 10.996c0 .305-3.554.553-7.938.553s-7.938-.248-7.938-.553 3.554-.553 7.938-.553 7.938.248 7.938.553z" opacity=".7" style="fill: var(--color2, #fdfdff);" />
            <path
                fill="#7e8fdd"
                d="M20.332 13.819c-.678 1.098-1.93 1.822-3.641 2.247 0 0 .255 3.311-2.004 3.708h-.209c-2.823 0-2.35-3.613-2.35-3.613-1.621-.343-2.869-1.079-3.565-2.407 0 0 2.254-.159 4.233.156s3.262.561 5.287.18a15.851 15.851 0 0 1 2.249-.271l.001.001z"
                opacity=".9"
                style="fill: var(--color5, #7e8fdd);"
            />
            <path fill="#242424" d="M8.563 13.753s2.875 1.315 6.949 1.064 4.82-.998 4.82-.998-1.227.028-2.248.271c-1.021.243-2.619.191-3.324.11-.686-.078-3.651-.683-6.197-.446v-.001z" opacity=".3" style="fill: var(--color4, #242424);" />
            <path fill="#7e8fdd" d="M11.309 15.546 2.926 4.518l.417-.344 8.441 11.073s.007.405-.476.299v-.001z" style="fill: var(--color5, #7e8fdd);" />
            <path fill="#242424" d="M11.309 15.546 2.926 4.518l.417-.344 8.441 11.073s.007.405-.476.299v-.001z" opacity=".3" style="fill: var(--color4, #242424);" />
            <path fill="#7e8fdd" d="M10.565 8.279a4.063 4.063 0 0 0-.182-.3c-1.27-1.902-3.758-2.473-5.557-1.276s-2.227 3.71-.957 5.61c.065.099.135.192.208.284l6.489-4.319z" style="fill: var(--color5, #7e8fdd);" />
            <path fill="#242424" d="M10.565 8.279a4.063 4.063 0 0 0-.182-.3c-1.27-1.902-3.758-2.473-5.557-1.276s-2.227 3.71-.957 5.61c.065.099.135.192.208.284l6.489-4.319z" opacity=".3" style="fill: var(--color4, #242424);" />
            <path fill="#7e8fdd" d="m10.575 8.273-.064-.102c-1.199-1.796-3.63-2.28-5.429-1.083s-2.285 3.623-1.085 5.418l.069.099 6.509-4.332z" style="fill: var(--color5, #7e8fdd);" />
            <path fill="#fdfdff" d="M10.439 8.358a3.762 3.762 0 0 0-5.271-1.135 3.746 3.746 0 0 0-1.042 5.201c.022.032.044.062.063.092l6.25-4.157z" opacity=".8" style="fill: var(--color2, #fdfdff);" />
            <path
                fill="#7e8fdd"
                d="m7.656 9.911 2.16-1.443a.214.214 0 0 0 .056-.298c-.003-.006-.008-.011-.012-.016a3.396 3.396 0 0 0-1.574-1.052.215.215 0 0 0-.268.138l-.006.023-.509 2.545a.098.098 0 0 0 .075.117c.027.006.056 0 .079-.016v.002zM7.232 9.756l.51-2.546a.212.212 0 0 0-.19-.253 3.4 3.4 0 0 0-1.858.368.211.211 0 0 0-.08.307L7.06 9.794a.099.099 0 0 0 .173-.036zM6.668 10.37l-2.551-.51a.214.214 0 0 0-.255.192 3.389 3.389 0 0 0 .368 1.855.213.213 0 0 0 .287.092c.007-.003.014-.008.02-.012l2.164-1.441a.098.098 0 0 0-.035-.174l.001-.001zM6.822 9.945l-1.444-2.16a.215.215 0 0 0-.298-.056c-.006.003-.011.008-.016.012A3.384 3.384 0 0 0 4.01 9.312a.214.214 0 0 0 .139.268c.007.003.014.004.022.006l2.55.508a.097.097 0 0 0 .113-.081.098.098 0 0 0-.014-.069h.002z"
                style="fill: var(--color5, #7e8fdd);"
            />
            <path
                fill="#fdfdff"
                d="m7.656 9.911 2.16-1.443a.214.214 0 0 0 .056-.298c-.003-.006-.008-.011-.012-.016a3.396 3.396 0 0 0-1.574-1.052.215.215 0 0 0-.268.138l-.006.023-.509 2.545a.098.098 0 0 0 .075.117c.027.006.056 0 .079-.016v.002zM7.232 9.756l.51-2.546a.212.212 0 0 0-.19-.253 3.4 3.4 0 0 0-1.858.368.211.211 0 0 0-.08.307L7.06 9.794a.099.099 0 0 0 .173-.036zM6.668 10.37l-2.551-.51a.214.214 0 0 0-.255.192 3.389 3.389 0 0 0 .368 1.855.213.213 0 0 0 .287.092c.007-.003.014-.008.02-.012l2.164-1.441a.098.098 0 0 0-.035-.174l.001-.001zM6.822 9.945l-1.444-2.16a.215.215 0 0 0-.298-.056c-.006.003-.011.008-.016.012A3.384 3.384 0 0 0 4.01 9.312a.214.214 0 0 0 .139.268c.007.003.014.004.022.006l2.55.508a.097.097 0 0 0 .113-.081.098.098 0 0 0-.014-.069h.002z"
                opacity=".3"
                style="fill: var(--color2, #fdfdff);"
            />
            <path fill="#7e8fdd" d="M4.987 11.231c-.104.031-.199.016-.214-.033s.057-.116.16-.146c.104-.031.2-.015.215.035s-.058.116-.16.145l-.001-.001z" style="fill: var(--color5, #7e8fdd);" />
            <path fill="#fdfdff" d="M4.987 11.231c-.104.031-.199.016-.214-.033s.057-.116.16-.146c.104-.031.2-.015.215.035s-.058.116-.16.145l-.001-.001z" opacity=".6" style="fill: var(--color2, #fdfdff);" />
            <path fill="#7e8fdd" d="M5.566 10.615c-.106.024-.201.003-.211-.048s.062-.112.169-.132c.107-.02.201-.003.212.049s-.064.109-.17.132v-.001z" style="fill: var(--color5, #7e8fdd);" />
            <path fill="#fdfdff" d="M5.566 10.615c-.106.024-.201.003-.211-.048s.062-.112.169-.132c.107-.02.201-.003.212.049s-.064.109-.17.132v-.001z" opacity=".6" style="fill: var(--color2, #fdfdff);" />
            <path fill="#7e8fdd" d="M8.444 8.252c-.063.087-.149.135-.191.105s-.024-.126.037-.213.148-.135.19-.105c.042.03.025.126-.036.214z" style="fill: var(--color5, #7e8fdd);" />
            <path
                fill="#fdfdff"
                d="M8.444 8.252c-.063.087-.149.135-.191.105s-.024-.126.037-.213.148-.135.19-.105c.042.03.025.126-.036.214zM5.611 9.095c.08.073.118.163.083.201s-.128.011-.208-.061c-.08-.072-.117-.162-.083-.201s.128-.011.208.061z"
                opacity=".6"
                style="fill: var(--color2, #fdfdff);"
            />
            <path fill="#7e8fdd" d="M5.289 6.007a.841.841 0 1 1-1.674.166.841.841 0 0 1 1.674-.166z" style="fill: var(--color5, #7e8fdd);" />
            <path fill="#fdfdff" d="M3.803 5.766s-.202.328-.024.649.438.384.438.384.005-.325-.02-.639-.394-.395-.394-.395h.001z" opacity=".3" style="fill: var(--color2, #fdfdff);" />
            <path
                fill="#fdfdff"
                d="M21.432 11.282c-4.462.361-9.048.348-13.743.002 0 0 .012 2.129 1.872 3.71.622.529 1.492.937 2.574 1.165 0 0-.473 3.613 2.35 3.613h.209c2.259-.398 2.004-3.708 2.004-3.708 1.011-.251 1.802-.53 2.431-.983 2.207-1.592 2.303-3.8 2.303-3.8z"
                opacity=".27"
                style="fill: var(--color2, #fdfdff);"
            />
            <path
                fill="#9cdfdf"
                d="M22.297 10.996c-.005.044-.052.064-.087.082-.271.109-.568.137-.855.18-.993.124-1.994.175-2.994.22-3.663.12-7.35.156-10.999-.22-.287-.043-.584-.072-.855-.18-.035-.019-.081-.039-.087-.082.005.044.052.063.087.082.271.108.568.136.855.178 3.651.366 7.335.315 10.999.212.999-.042 2-.091 2.994-.212.287-.042.584-.07.855-.178.035-.019.081-.038.087-.082z"
                style="fill: var(--color3, #9cdfdf);"
            />
            <path fill="#242424" d="M13.948 20.482v.21s.547.105 1.003-.032v-.203c-.371.091-.593.087-.981.03z" opacity=".3" style="fill: var(--color4, #242424);" />
            <path fill="#9cdfdf" d="M12.941 28.593a6.196 6.196 0 0 1 2.837-.071 7.025 7.025 0 0 0-2.837.071z" style="fill: var(--color3, #9cdfdf);" />
            <path
                fill="#fdfdff"
                d="M14.359 17.242a.228.228 0 1 0 0-.455.228.228 0 0 0 0 .455zM13.72 17.766a.174.174 0 1 1-.348 0 .174.174 0 0 1 .348 0zM15.881 18.303c.062 0 .112-.05.112-.111a.112.112 0 0 0-.223 0c0 .061.05.111.111.111zM13.398 16.855a.11.11 0 1 0 0-.222.11.11 0 1 0 0 .222zM15.424 18.719a.281.281 0 1 1-.562 0 .281.281 0 0 1 .562 0z"
                opacity=".3"
                style="fill: var(--color2, #fdfdff);"
            />
        </symbol>
        <symbol id="icon-like" viewBox="0 0 32 32">
        <path d="M30.62 21.755c0.656-0.836 0.97-1.733 0.93-2.657-0.040-1.017-0.495-1.813-0.87-2.302 0.435-1.084 0.602-2.79-0.85-4.115-1.064-0.97-2.871-1.405-5.373-1.285-1.76 0.080-3.232 0.408-3.292 0.422h-0.007c-0.335 0.060-0.689 0.134-1.051 0.214-0.027-0.428 0.047-1.492 0.836-3.888 0.937-2.851 0.883-5.032-0.174-6.491-1.111-1.532-2.884-1.653-3.406-1.653-0.502 0-0.964 0.207-1.291 0.589-0.743 0.863-0.656 2.456-0.562 3.192-0.883 2.369-3.359 8.177-5.454 9.79-0.040 0.027-0.074 0.060-0.107 0.094-0.616 0.649-1.031 1.352-1.312 1.967-0.395-0.214-0.843-0.335-1.325-0.335h-4.082c-1.539 0-2.784 1.251-2.784 2.784v10.874c0 1.539 1.251 2.784 2.784 2.784h4.082c0.596 0 1.151-0.187 1.606-0.509l1.573 0.187c0.241 0.033 4.524 0.576 8.92 0.488 0.796 0.060 1.546 0.094 2.242 0.094 1.198 0 2.242-0.094 3.112-0.281 2.048-0.435 3.446-1.305 4.156-2.583 0.542-0.977 0.542-1.947 0.455-2.563 1.332-1.205 1.566-2.536 1.519-3.473-0.027-0.542-0.147-1.004-0.274-1.345zM3.23 29.932c-0.542 0-0.977-0.442-0.977-0.977v-10.881c0-0.542 0.442-0.977 0.977-0.977h4.082c0.542 0 0.977 0.442 0.977 0.977v10.874c0 0.542-0.442 0.977-0.977 0.977h-4.082v0.007zM28.907 20.972c-0.281 0.294-0.335 0.743-0.12 1.091 0 0.007 0.274 0.475 0.308 1.118 0.047 0.877-0.375 1.653-1.258 2.315-0.314 0.241-0.442 0.656-0.308 1.031 0 0.007 0.288 0.89-0.181 1.726-0.448 0.803-1.445 1.378-2.958 1.7-1.211 0.261-2.857 0.308-4.878 0.147h-0.094c-4.303 0.094-8.652-0.468-8.699-0.475h-0.007l-0.676-0.080c0.040-0.187 0.060-0.388 0.060-0.589v-10.881c0-0.288-0.047-0.569-0.127-0.83 0.12-0.448 0.455-1.445 1.245-2.295 3.005-2.382 5.942-10.419 6.069-10.767 0.054-0.141 0.067-0.294 0.040-0.448-0.114-0.749-0.074-1.666 0.087-1.941 0.355 0.007 1.312 0.107 1.887 0.903 0.683 0.944 0.656 2.63-0.080 4.865-1.124 3.406-1.218 5.199-0.328 5.989 0.442 0.395 1.031 0.415 1.459 0.261 0.408-0.094 0.796-0.174 1.164-0.234 0.027-0.007 0.060-0.013 0.087-0.020 2.054-0.448 5.735-0.723 7.013 0.442 1.084 0.99 0.314 2.302 0.228 2.442-0.248 0.375-0.174 0.863 0.161 1.164 0.007 0.007 0.709 0.669 0.743 1.559 0.027 0.596-0.254 1.205-0.836 1.807z"></path>
        </symbol>
        <symbol id="icon-dislike" viewBox="0 0 32 32">
        <path d="M30.618 10.244c0.127-0.341 0.248-0.803 0.281-1.338 0.047-0.944-0.187-2.269-1.519-3.473 0.087-0.616 0.087-1.593-0.455-2.563-0.716-1.285-2.115-2.155-4.162-2.59-1.372-0.294-3.172-0.355-5.354-0.187-4.397-0.087-8.68 0.455-8.921 0.489l-1.573 0.187c-0.455-0.321-1.011-0.509-1.606-0.509h-4.082c-1.539 0-2.784 1.251-2.784 2.784v10.875c0 1.539 1.251 2.784 2.784 2.784h4.082c0.482 0 0.93-0.12 1.325-0.335 0.281 0.616 0.696 1.318 1.312 1.968 0.033 0.033 0.067 0.067 0.107 0.094 2.101 1.613 4.577 7.422 5.454 9.791-0.087 0.736-0.174 2.329 0.562 3.192 0.328 0.381 0.783 0.589 1.292 0.589 0.515 0 2.295-0.12 3.406-1.653 1.051-1.459 1.111-3.641 0.174-6.491-0.79-2.396-0.863-3.46-0.837-3.888 0.361 0.080 0.716 0.154 1.057 0.214h0.007c0.060 0.013 1.532 0.341 3.293 0.422 2.503 0.12 4.316-0.315 5.374-1.285 1.459-1.332 1.285-3.032 0.85-4.116 0.375-0.489 0.83-1.285 0.87-2.302 0.027-0.924-0.281-1.814-0.937-2.657zM7.309 14.902h-4.082c-0.542 0-0.977-0.442-0.977-0.977v-10.875c0-0.542 0.442-0.977 0.977-0.977h4.082c0.542 0 0.977 0.442 0.977 0.977v10.875c0 0.542-0.435 0.977-0.977 0.977zM28.838 15.551c0 0.007 0.234 0.375 0.315 0.877 0.1 0.622-0.074 1.138-0.542 1.566-1.278 1.164-4.959 0.897-7.013 0.442-0.027-0.007-0.054-0.013-0.087-0.020-0.368-0.067-0.763-0.147-1.164-0.234-0.428-0.154-1.017-0.134-1.459 0.261-0.89 0.79-0.79 2.583 0.328 5.989 0.736 2.235 0.763 3.922 0.080 4.865-0.576 0.796-1.526 0.897-1.887 0.903-0.161-0.268-0.207-1.184-0.087-1.941 0.020-0.147 0.007-0.301-0.040-0.448-0.127-0.341-3.065-8.385-6.070-10.768-0.783-0.85-1.124-1.847-1.245-2.295 0.080-0.261 0.127-0.542 0.127-0.83v-10.868c0-0.201-0.020-0.402-0.060-0.589l0.676-0.080h0.007c0.040-0.007 4.397-0.569 8.7-0.475h0.094c2.028-0.161 3.667-0.114 4.879 0.147 1.499 0.321 2.489 0.883 2.945 1.68 0.475 0.823 0.214 1.673 0.194 1.753-0.141 0.375-0.013 0.783 0.308 1.024 1.981 1.486 1.071 3.219 0.95 3.433-0.221 0.348-0.167 0.79 0.12 1.091 0.576 0.602 0.857 1.205 0.837 1.793-0.027 0.877-0.703 1.533-0.75 1.573-0.335 0.288-0.395 0.776-0.154 1.151z"></path>
        </symbol>
        
    </defs>
</svg>