<svg xmlns="http://www.w3.org/2000/svg" aria-hidden="true" style="position: absolute; width: 0; height: 0; overflow: hidden;">
    <defs>
        <symbol id="icon-facebook" viewBox="0 0 18 32">
            <path
                fill="#fdfdff"
                d="M14.45 5.602h2.924V.655a40.727 40.727 0 0 0-4.262-.218c-4.231 0-7.124 2.582-7.124 7.311v4.076H1.212v5.538h4.776v14.187h5.724V17.362h4.76l.716-5.538h-5.476V8.293c0-1.633.436-2.691 2.738-2.691z"
                style="fill: var(--color1, #fdfdff);"
            />
        </symbol>
        <symbol id="icon-instagram" viewBox="0 0 32 32">
            <path
                fill="#fdfdff"
                d="M23.983 6.229a1.794 1.794 0 0 0-1.758 2.141 1.794 1.794 0 0 0 2.443 1.306 1.79 1.79 0 0 0 1.106-1.656 1.792 1.792 0 0 0-1.792-1.792zm6.869 3.614a11.33 11.33 0 0 0-.687-3.629 7.38 7.38 0 0 0-1.732-2.643 7.01 7.01 0 0 0-2.643-1.717 10.905 10.905 0 0 0-3.629-.702c-1.583-.09-2.091-.09-6.152-.09s-4.57 0-6.152.09a10.905 10.905 0 0 0-3.629.702 7.135 7.135 0 0 0-2.643 1.717 7.01 7.01 0 0 0-1.717 2.643 10.905 10.905 0 0 0-.702 3.629c-.09 1.583-.09 2.091-.09 6.153s0 4.57.09 6.152c.026 1.241.263 2.468.702 3.629.365 1 .952 1.904 1.717 2.643a7.135 7.135 0 0 0 2.643 1.717c1.161.439 2.388.676 3.629.702 1.583.09 2.091.09 6.152.09s4.57 0 6.152-.09a10.905 10.905 0 0 0 3.629-.702c1-.365 1.904-.952 2.643-1.717a7.243 7.243 0 0 0 1.732-2.643 11.33 11.33 0 0 0 .687-3.629c0-1.583.09-2.091.09-6.152s0-4.57-.09-6.153zm-2.688 12.126a8.39 8.39 0 0 1-.508 2.778 4.556 4.556 0 0 1-1.12 1.717 4.763 4.763 0 0 1-1.717 1.12 8.39 8.39 0 0 1-2.778.508c-1.493.075-2.046.09-5.973.09s-4.48 0-5.973-.09a8.566 8.566 0 0 1-2.897-.448 4.885 4.885 0 0 1-1.643-1.12 4.48 4.48 0 0 1-1.105-1.717 8.25 8.25 0 0 1-.597-2.837c0-1.493-.09-2.046-.09-5.973s0-4.48.09-5.973a8.281 8.281 0 0 1 .523-2.837 4.482 4.482 0 0 1 1.18-1.643 4.7 4.7 0 0 1 1.643-1.195 8.58 8.58 0 0 1 2.837-.508c1.493 0 2.046-.09 5.973-.09s4.48 0 5.973.09a8.39 8.39 0 0 1 2.778.508 4.56 4.56 0 0 1 1.777 1.195c.489.459.872 1.02 1.12 1.643a8.37 8.37 0 0 1 .508 2.837c.075 1.493.09 2.046.09 5.973s-.015 4.48-.09 5.973zM16.008 8.335a7.667 7.667 0 0 0-7.067 4.739 7.66 7.66 0 0 0 10.017 9.997 7.657 7.657 0 0 0 4.726-7.077 7.645 7.645 0 0 0-7.675-7.66zm0 12.634a4.979 4.979 0 0 1-4.595-3.07 4.975 4.975 0 0 1 3.624-6.78 4.974 4.974 0 0 1 5.564 6.781 4.965 4.965 0 0 1-2.691 2.691 4.97 4.97 0 0 1-1.903.379z"
                style="fill: var(--color1, #fdfdff);"
            />
        </symbol>
        <symbol id="icon-youtube" viewBox="0 0 32 32">
            <path
                fill="#fdfdff"
                d="M24.24 6c-1.36-.08-4.16-.16-8.4-.16h-.56c-4.08 0-6.8.08-8.16.24-1.84.16-3.12.64-3.84 1.28-.64.56-1.12 1.6-1.28 2.96-.08.88-.16 2.72-.16 5.52v.4c0 2.64.08 4.48.24 5.36.24 1.28.64 2.24 1.44 2.8.8.64 2.16 1.04 4.08 1.2 1.36.08 4.16.16 8.4.16h.56c4.08 0 6.8-.08 8.16-.24 1.84-.16 3.12-.64 3.84-1.28.64-.56 1.12-1.6 1.28-2.96.08-.88.16-2.72.16-5.52v-.4c0-2.64-.08-4.48-.24-5.36-.24-1.28-.64-2.24-1.44-2.8-.8-.64-2.16-1.04-4.08-1.2zm-3.12 9.839-8.8 5.28v-10.56l8.8 5.28z"
                style="fill: var(--color1, #fdfdff);"
            />
        </symbol>
        <symbol id="icon-trash" viewBox="0 0 32 32">
            <path
                fill="none"
                stroke="#fdfdff"
                stroke-linecap="round"
                stroke-linejoin="round"
                stroke-width="2.667"
                d="M21.333 8V6.933c0-1.493 0-2.24-.291-2.811a2.666 2.666 0 0 0-1.165-1.165c-.57-.291-1.317-.291-2.811-.291h-2.133c-1.493 0-2.24 0-2.811.291-.502.256-.91.664-1.165 1.165-.291.57-.291 1.317-.291 2.811V8m2.667 7.333V22m5.334-6.667V22M4 8h24m-2.667 0v14.933c0 2.24 0 3.36-.436 4.216a3.991 3.991 0 0 1-1.748 1.748c-.856.436-1.976.436-4.216.436h-5.867c-2.24 0-3.36 0-4.216-.436a3.991 3.991 0 0 1-1.748-1.748c-.436-.856-.436-1.976-.436-4.216V8"
                style="stroke: var(--color1, #fdfdff);"
            />
        </symbol>
        <symbol id="icon-heart" viewBox="0 0 32 32">
            <path
                fill="none"
                stroke="#fdfdff"
                stroke-linecap="round"
                stroke-linejoin="round"
                stroke-width="2.667"
                d="M27.787 6.146a7.326 7.326 0 0 0-10.373 0l-1.413 1.413-1.413-1.413a7.333 7.333 0 0 0-10.374 0 7.333 7.333 0 0 0 0 10.374l11.787 11.787L27.788 16.52a7.345 7.345 0 0 0 2.15-5.187 7.33 7.33 0 0 0-2.15-5.187z"
                style="stroke: var(--color1, #fdfdff);"
            />
        </symbol>
        <symbol id="icon-search" viewBox="0 0 32 32">
            <path
                d="m29.092 31.514-6.85-6.862c-1.077.935-2.334 1.663-3.77 2.185s-2.962.782-4.578.782c-3.877 0-7.163-1.349-9.855-4.046S0 17.621 0 13.809c0-3.812 1.346-7.067 4.039-9.764S9.999-.001 13.84-.001c3.806 0 7.046 1.349 9.721 4.046s4.012 5.952 4.012 9.764c0 1.546-.251 3.039-.754 4.477s-1.257 2.787-2.262 4.046l6.958 6.862c.323.288.485.656.485 1.106s-.18.854-.539 1.214c-.323.324-.718.486-1.185.486s-.862-.162-1.185-.486zM13.84 24.383c2.908 0 5.385-1.034 7.432-3.102s3.07-4.558 3.07-7.471-1.023-5.403-3.07-7.471c-2.046-2.068-4.524-3.102-7.432-3.102-2.944 0-5.448 1.034-7.513 3.102S3.23 10.897 3.23 13.81c0 2.913 1.032 5.403 3.097 7.471s4.569 3.102 7.513 3.102z"
            />
        </symbol>
        <symbol id="icon-bg-hero" viewBox="0 0 26 32">
            <path
                fill="#242424"
                d="M19.187 5.893a3.564 3.564 0 0 1 3.823 1.169 3.564 3.564 0 0 1 1.169-3.823 3.564 3.564 0 0 1-3.823-1.169 3.564 3.564 0 0 1-1.169 3.823zm-.513.203a3.44 3.44 0 0 0 1.371-4.483l.108-.058a3.44 3.44 0 0 0 4.483 1.371l.058.108a3.44 3.44 0 0 0-1.371 4.483l-.108.058a3.44 3.44 0 0 0-4.483-1.37l-.058-.108z"
                style="fill: var(--color2, #242424);"
            />
            <path
                fill="#242424"
                d="M23.144 6.463c.084.296.127.54.129.717.001.088-.008.153-.023.197s-.031.056-.04.061-.029.011-.073-.001a.602.602 0 0 1-.176-.091 2.985 2.985 0 0 1-.522-.508c-.397-.469-.861-1.167-1.296-1.985s-.755-1.593-.921-2.184a2.932 2.932 0 0 1-.129-.717c-.001-.089.008-.153.023-.197s.031-.056.04-.061c.009-.005.029-.011.073.001s.104.041.176.091c.145.101.323.273.522.508.397.469.861 1.167 1.296 1.985s.755 1.593.921 2.184zm.124 1.083c.358-.19-.062-1.679-.937-3.325s-1.875-2.826-2.233-2.636c-.358.19.062 1.679.937 3.325s1.875 2.826 2.233 2.636z"
                style="fill: var(--color2, #242424);"
            />
            <path
                fill="#242424"
                d="M19.786 6.027c-.297.084-.54.127-.717.129-.089.001-.153-.008-.197-.023s-.056-.031-.061-.04c-.005-.009-.011-.029.001-.073s.041-.104.091-.176c.101-.145.273-.323.508-.522.469-.397 1.167-.861 1.985-1.296s1.593-.755 2.184-.921c.297-.084.54-.127.717-.129.088-.001.153.008.197.023s.057.031.061.04.011.029-.001.073a.602.602 0 0 1-.091.176 2.985 2.985 0 0 1-.508.522c-.469.397-1.167.861-1.985 1.296s-1.593.755-2.184.921zm-1.084.124c.19.358 1.679-.062 3.325-.937s2.826-1.875 2.636-2.233c-.19-.358-1.679.062-3.325.937s-2.826 1.875-2.636 2.233zM.776 20.581a1.32 1.32 0 0 1 1.42.421 1.322 1.322 0 0 1 .421-1.421 1.32 1.32 0 0 1-1.42-.421 1.32 1.32 0 0 1-.421 1.42zm-.19.078c.576-.34.791-1.067.493-1.665l.04-.022c.34.576 1.067.791 1.665.493l.022.04a1.274 1.274 0 0 0-.493 1.665l-.04.022a1.274 1.274 0 0 0-1.665-.493l-.022-.04z"
                style="fill: var(--color2, #242424);"
            />
            <path
                fill="#242424"
                d="M2.244 20.78c.032.11.049.2.05.265.001.033-.002.057-.008.073s-.011.021-.015.023-.011.004-.027 0a.222.222 0 0 1-.066-.033 1.102 1.102 0 0 1-.195-.186c-.149-.172-.323-.43-.487-.731s-.285-.588-.348-.806a1.08 1.08 0 0 1-.05-.265c-.001-.033.002-.057.008-.073s.011-.021.015-.023.011-.004.027 0a.222.222 0 0 1 .066.033c.054.037.121.1.195.186.149.172.323.43.487.731s.285.588.348.806zm.049.401c.132-.072-.028-.622-.358-1.229s-.704-1.041-.836-.97c-.132.072.028.622.358 1.229s.704 1.041.836.97z"
                style="fill: var(--color2, #242424);"
            />
            <path
                fill="#242424"
                d="M.998 20.629c-.11.032-.2.049-.265.05-.033.001-.057-.002-.073-.008s-.021-.011-.023-.015c-.002-.003-.004-.011 0-.027s.015-.038.033-.066c.037-.054.1-.121.186-.195.172-.149.43-.323.731-.487s.588-.285.806-.348c.11-.032.2-.049.265-.05.033-.001.057.002.073.008s.021.011.023.015.004.011 0 .027a.234.234 0 0 1-.033.066c-.037.054-.1.121-.186.195-.172.149-.43.323-.731.487s-.588.285-.806.348zm-.401.049c.072.132.622-.028 1.229-.358s1.041-.704.97-.836c-.072-.132-.622.028-1.229.358s-1.041.704-.97.836z"
                style="fill: var(--color2, #242424);"
            />
            <path fill="#7e8fdd" d="M6.894 30.272a.57.57 0 1 1-1.142 0 .57.57 0 0 1 1.142 0zM17.545 2.885a.428.428 0 1 1-.857-.001.428.428 0 0 1 .857.001z" style="fill: var(--color3, #7e8fdd);" />
            <path fill="#9cdfdf" d="M20.779 31.556a.428.428 0 1 1-.857-.001.428.428 0 0 1 .857.001z" style="fill: var(--color4, #9cdfdf);" />
        </symbol>
        <symbol id="icon-close-modal" viewBox="0 0 24 24">
            <path d="M16.5 5.5L5.5 16.5" stroke-width="2" stroke-linecap="round" stroke-linejoin="round"/>
            <path d="M5.5 5.5L16.5 16.5" stroke-width="2" stroke-linecap="round" stroke-linejoin="round"/>
        </symbol>
        <symbol id="icon-burger" viewBox="0 0 32 32"><path stroke="#242424" stroke-linecap="round" stroke-linejoin="round" stroke-miterlimit="4" stroke-width="2" d="M28 13.334H4M28 8H4M28 18.666H4M28 24H4" /></symbol>
        <symbol id="icon-dark" viewBox="0 0 60 32">
            <path fill="#9cdfdf" stroke="none" d="M16 .889h28.444C52.79.889 59.555 7.654 59.555 16S52.79 31.111 44.444 31.111H16C7.654 31.111.889 24.346.889 16S7.654.889 16 .889z" style="fill: var(--color4, #9cdfdf);" />
            <path fill="#fdfdff" stroke="none" d="M44.444 3.556c6.873 0 12.444 5.572 12.444 12.444v.002c0 6.873-5.572 12.444-12.444 12.444S32 22.874 32 16.002V16c0-6.873 5.572-12.444 12.444-12.444z" style="fill: var(--color1, #fdfdff);" />
            <path
                fill="none"
                stroke-width="1.778"
                d="M16 .889h28.444C52.79.889 59.555 7.654 59.555 16S52.79 31.111 44.444 31.111H16C7.654 31.111.889 24.346.889 16S7.654.889 16 .889z"
                style="stroke: var(--color3);"
            />
        </symbol>
        <symbol id="icon-light" viewBox="0 0 60 32">
            <path fill="#9cdfdf" stroke="none" d="M16 3.556c6.873 0 12.444 5.572 12.444 12.444v.002c0 6.873-5.572 12.444-12.444 12.444S3.556 22.874 3.556 16.002V16C3.556 9.127 9.128 3.556 16 3.556z" style="fill: var(--color4, #9cdfdf);" />
            <path
                fill="none"
                stroke-width="1.778"
                d="M16 .889h28.444C52.79.889 59.555 7.654 59.555 16S52.79 31.111 44.444 31.111H16C7.654 31.111.889 24.346.889 16S7.654.889 16 .889z"
                style="stroke: var(--color2);"
            />
        </symbol>
        <symbol id="icon-cocktail" viewBox="0 0 37 32">
            <path
                
                d="M32.893.904c-.072-.045-.142-.08-.212-.116A5.93 5.93 0 0 0 29.89.1h-.011c-1.063.002-2.108.283-3.03.816s-1.689 1.299-2.227 2.222l-.016.029a5.937 5.937 0 0 0-.772 2.463l-.001.023H11.106L9.682 2.201C9.362 1.42 8.776.778 8.029.393S6.422-.098 5.604.096l.024-.005-4.303.984.266 1.181 4.303-.984c.535-.123 1.097-.052 1.585.201s.873.67 1.085 1.179l.005.016 1.236 2.987H1.723l13.513 13.591v9.951c-3.138.224-5.303 1.269-5.303 2.567v.241h13.024v-.241c0-1.296-2.169-2.347-5.303-2.567v-9.951l8.329-8.377c.261.223.553.429.86.611l.029.016c1.393.797 3.043 1.007 4.59.584s2.864-1.444 3.664-2.841c.8-1.397 1.018-3.055.606-4.613s-1.42-2.888-2.804-3.701l-.029-.016-.009-.003zm1.325 4.676-3.306.009 1.645-2.88a4.413 4.413 0 0 1 1.659 2.847l.003.024zm-2.702-3.479-1.645 2.888-1.662-2.871a4.341 4.341 0 0 1 1.676-.331c.587 0 1.148.115 1.661.324l-.029-.011zm-5.45 1.905a4.353 4.353 0 0 1 1.094-1.273l.009-.007 1.662 2.871-3.298.009a4.21 4.21 0 0 1 .544-1.621l-.011.02v.001zM5.779 7.341H10.5l.65 1.583H7.354L5.779 7.341zm19.745 1.584h-1.078v.008H12.444l-.65-1.583h15.291l-1.562 1.575zm2.711 1.368 1.645-2.888 1.662 2.871a4.29 4.29 0 0 1-1.673.333 4.346 4.346 0 0 1-1.664-.328l.029.012zm5.45-1.896c-.279.491-.65.924-1.092 1.273l-.009.007-1.662-2.871 3.298-.008a4.473 4.473 0 0 1-.545 1.619l.012-.021-.001.001z"
                style="fill: var(--color3);"
            />
        </symbol>
        <symbol id="icon-arrow" viewBox="0 0 32 32"><path fill="none"  stroke-linecap="round" stroke-linejoin="round" stroke-width="2.667" d="m8 12 8 8 8-8" style="stroke: var(--color3);" /></symbol>
        <symbol id="icon-star" viewBox="0 0 32 32">
            <path
                fill="#fdfdff"
                d="M3.294 27.725c8.884-2.746 18.602.225 24.431 7.469-2.746-8.884.225-18.602 7.469-24.431-8.884 2.747-18.602-.225-24.431-7.469 2.746 8.884-.225 18.602-7.469 24.431zM.013 29.026C9.992 23.252 13.815 10.748 8.771.381l.692-.368c5.774 9.979 18.278 13.802 28.645 8.758l.368.692c-9.979 5.774-13.802 18.278-8.758 28.645l-.692.368C23.252 28.497 10.748 24.674.381 29.718l-.368-.692z"
                style="fill: var(--color1, #fdfdff);"
            />
            <path
                fill="#fdfdff"
                d="M28.579 31.368c.534 1.895.809 3.452.825 4.58.008.565-.05.98-.146 1.26-.094.276-.199.361-.254.39s-.185.069-.466-.007c-.286-.078-.662-.261-1.126-.584-.927-.644-2.064-1.743-3.336-3.245-2.536-2.994-5.502-7.459-8.28-12.685S10.974 10.896 9.91 7.119c-.534-1.895-.809-3.452-.825-4.58-.008-.565.05-.98.146-1.26.094-.276.199-.361.254-.39s.185-.069.466.007c.286.078.662.261 1.126.584.927.644 2.063 1.743 3.336 3.245 2.536 2.994 5.502 7.459 8.28 12.685s4.822 10.181 5.886 13.958zm.792 6.923c2.287-1.216-.393-10.729-5.987-21.249S11.403-1.02 9.116.196s.394 10.729 5.987 21.249 11.982 18.062 14.268 16.846z"
                style="fill: var(--color1, #fdfdff);"
            />
            <path
                fill="#fdfdff"
                d="M7.12 28.579c-1.895.534-3.452.809-4.58.825-.565.008-.98-.051-1.26-.146-.276-.094-.361-.2-.39-.254s-.069-.185.007-.466c.078-.286.261-.662.584-1.126.644-.927 1.743-2.063 3.245-3.336 2.994-2.536 7.459-5.502 12.685-8.28s10.181-4.822 13.958-5.886c1.895-.534 3.452-.809 4.58-.825.565-.008.98.05 1.26.146.276.094.361.199.39.254s.069.185-.007.466c-.078.286-.261.662-.584 1.126-.644.927-1.743 2.063-3.245 3.336-2.994 2.536-7.459 5.502-12.685 8.28S10.897 27.515 7.12 28.579zm-6.923.793c1.216 2.287 10.729-.394 21.249-5.987S39.508 11.404 38.292 9.117c-1.216-2.287-10.729.394-21.249 5.987S-1.019 27.085.197 29.372z"
                style="fill: var(--color1, #fdfdff);"
            />
        </symbol>
    </defs>
</svg>