<svg width="343" height="482" fill="none" xmlns="http://www.w3.org/2000/svg"><path fill-rule="evenodd" clip-rule="evenodd" d="M242.426 83.787c19.767-6.111 41.391.5 54.361 16.62-6.112-19.767.5-41.391 16.619-54.361-19.766 6.111-41.39-.5-54.36-16.62 6.111 19.767-.5 41.39-16.62 54.36Zm-7.3 2.894c22.204-12.848 30.71-40.668 19.486-63.737l1.539-.818C269 44.33 296.82 52.836 319.888 41.612l.819 1.54C298.502 56 289.997 83.82 301.22 106.888l-1.539.818c-12.848-22.205-40.669-30.71-63.737-19.486l-.818-1.54Z" fill="#242424"/><path fill-rule="evenodd" clip-rule="evenodd" d="M242.426 83.787c19.767-6.111 41.391.5 54.361 16.62-6.112-19.767.5-41.391 16.619-54.361-19.766 6.111-41.39-.5-54.36-16.62 6.111 19.767-.5 41.39-16.62 54.36Zm-7.3 2.894c22.204-12.848 30.71-40.668 19.486-63.737l1.539-.818C269 44.33 296.82 52.836 319.888 41.612l.819 1.54C298.502 56 289.997 83.82 301.22 106.888l-1.539.818c-12.848-22.205-40.669-30.71-63.737-19.486l-.818-1.54Z" fill="#242424"/><path fill-rule="evenodd" clip-rule="evenodd" d="M298.686 91.894c-2.368-8.405-6.914-19.43-13.097-31.058-6.182-11.627-12.78-21.562-18.424-28.225-2.831-3.342-5.36-5.787-7.422-7.22-1.033-.718-1.87-1.126-2.506-1.3-.626-.17-.914-.081-1.037-.016-.122.065-.357.254-.566.868-.211.625-.341 1.547-.324 2.805.035 2.51.648 5.975 1.836 10.19 2.368 8.405 6.915 19.43 13.097 31.058 6.182 11.627 12.78 21.563 18.424 28.225 2.831 3.342 5.36 5.787 7.422 7.221 1.033.718 1.87 1.125 2.506 1.299.626.171.914.082 1.037.017.122-.066.358-.255.566-.869.212-.625.341-1.546.324-2.804-.035-2.512-.648-5.975-1.836-10.191Zm1.765 15.404c5.088-2.706-.876-23.874-13.322-47.28-12.445-23.407-26.659-40.189-31.748-37.483-5.088 2.705.876 23.873 13.322 47.28 12.445 23.407 26.659 40.188 31.748 37.483Z" fill="#242424"/><path fill-rule="evenodd" clip-rule="evenodd" d="M298.686 91.894c-2.368-8.405-6.914-19.43-13.097-31.058-6.182-11.627-12.78-21.562-18.424-28.225-2.831-3.342-5.36-5.787-7.422-7.22-1.033-.718-1.87-1.126-2.506-1.3-.626-.17-.914-.081-1.037-.016-.122.065-.357.254-.566.868-.211.625-.341 1.547-.324 2.805.035 2.51.648 5.975 1.836 10.19 2.368 8.405 6.915 19.43 13.097 31.058 6.182 11.627 12.78 21.563 18.424 28.225 2.831 3.342 5.36 5.787 7.422 7.221 1.033.718 1.87 1.125 2.506 1.299.626.171.914.082 1.037.017.122-.066.358-.255.566-.869.212-.625.341-1.546.324-2.804-.035-2.512-.648-5.975-1.836-10.191Zm1.765 15.404c5.088-2.706-.876-23.874-13.322-47.28-12.445-23.407-26.659-40.189-31.748-37.483-5.088 2.705.876 23.873 13.322 47.28 12.445 23.407 26.659 40.188 31.748 37.483Z" fill="#242424"/><path fill-rule="evenodd" clip-rule="evenodd" d="M250.939 85.686c8.404-2.367 19.43-6.914 31.057-13.097 11.627-6.182 21.562-12.78 28.225-18.423 3.342-2.831 5.787-5.36 7.221-7.423.718-1.033 1.125-1.87 1.299-2.506.171-.626.081-.914.016-1.037-.065-.122-.254-.357-.868-.566-.625-.211-1.546-.341-2.804-.324-2.512.035-5.976.648-10.192 1.836-8.404 2.368-19.43 6.915-31.057 13.097-11.627 6.182-21.562 12.78-28.225 18.424-3.342 2.83-5.787 5.36-7.22 7.422-.718 1.033-1.126 1.87-1.3 2.507-.171.625-.081.914-.016 1.036s.254.358.868.566c.625.212 1.547.342 2.805.324 2.511-.035 5.975-.648 10.191-1.836Zm-15.404 1.765c2.705 5.088 23.873-.876 47.28-13.321 23.407-12.446 40.188-26.66 37.483-31.748-2.706-5.089-23.874.875-47.281 13.32-23.406 12.446-40.188 26.66-37.482 31.749Z" fill="#242424"/><path fill-rule="evenodd" clip-rule="evenodd" d="M250.939 85.686c8.404-2.367 19.43-6.914 31.057-13.097 11.627-6.182 21.562-12.78 28.225-18.423 3.342-2.831 5.787-5.36 7.221-7.423.718-1.033 1.125-1.87 1.299-2.506.171-.626.081-.914.016-1.037-.065-.122-.254-.357-.868-.566-.625-.211-1.546-.341-2.804-.324-2.512.035-5.976.648-10.192 1.836-8.404 2.368-19.43 6.915-31.057 13.097-11.627 6.182-21.562 12.78-28.225 18.424-3.342 2.83-5.787 5.36-7.22 7.422-.718 1.033-1.126 1.87-1.3 2.507-.171.625-.081.914-.016 1.036s.254.358.868.566c.625.212 1.547.342 2.805.324 2.511-.035 5.975-.648 10.191-1.836Zm-15.404 1.765c2.705 5.088 23.873-.876 47.28-13.321 23.407-12.446 40.188-26.66 37.483-31.748-2.706-5.089-23.874.875-47.281 13.32-23.406 12.446-40.188 26.66-37.482 31.749ZM7.663 342.152a13.202 13.202 0 0 1 14.156 4.328 13.2 13.2 0 0 1 4.329-14.156 13.203 13.203 0 0 1-14.157-4.328 13.201 13.201 0 0 1-4.328 14.156Zm-1.901.754c5.782-3.346 7.997-10.591 5.074-16.598l.401-.214a12.737 12.737 0 0 0 16.598 5.075l.214.401c-5.783 3.346-7.998 10.591-5.075 16.598l-.4.213a12.738 12.738 0 0 0-16.599-5.074l-.213-.401Z" fill="#242424"/><path fill-rule="evenodd" clip-rule="evenodd" d="M7.663 342.152a13.202 13.202 0 0 1 14.156 4.328 13.2 13.2 0 0 1 4.329-14.156 13.203 13.203 0 0 1-14.157-4.328 13.201 13.201 0 0 1-4.328 14.156Zm-1.901.754c5.782-3.346 7.997-10.591 5.074-16.598l.401-.214a12.737 12.737 0 0 0 16.598 5.075l.214.401c-5.783 3.346-7.998 10.591-5.075 16.598l-.4.213a12.738 12.738 0 0 0-16.599-5.074l-.213-.401Z" fill="#242424"/><path fill-rule="evenodd" clip-rule="evenodd" d="M22.314 344.263c-.616-2.188-1.8-5.06-3.41-8.088-1.61-3.028-3.329-5.615-4.798-7.35-.738-.87-1.396-1.507-1.933-1.88-.27-.187-.487-.293-.653-.339-.163-.044-.238-.021-.27-.004-.032.017-.093.066-.147.226-.056.163-.09.403-.085.731.01.653.169 1.556.478 2.653.617 2.189 1.801 5.06 3.411 8.088 1.61 3.028 3.328 5.615 4.798 7.351.737.87 1.396 1.507 1.933 1.88.269.187.487.293.652.338.163.045.239.021.27.005.032-.017.094-.067.148-.227.055-.162.089-.402.084-.73-.009-.654-.169-1.556-.478-2.654Zm.46 4.012c1.325-.705-.228-6.217-3.47-12.313-3.24-6.095-6.942-10.466-8.267-9.761-1.325.705.228 6.217 3.469 12.313 3.24 6.095 6.942 10.465 8.268 9.761Z" fill="#242424"/><path fill-rule="evenodd" clip-rule="evenodd" d="M22.314 344.263c-.616-2.188-1.8-5.06-3.41-8.088-1.61-3.028-3.329-5.615-4.798-7.35-.738-.87-1.396-1.507-1.933-1.88-.27-.187-.487-.293-.653-.339-.163-.044-.238-.021-.27-.004-.032.017-.093.066-.147.226-.056.163-.09.403-.085.731.01.653.169 1.556.478 2.653.617 2.189 1.801 5.06 3.411 8.088 1.61 3.028 3.328 5.615 4.798 7.351.737.87 1.396 1.507 1.933 1.88.269.187.487.293.652.338.163.045.239.021.27.005.032-.017.094-.067.148-.227.055-.162.089-.402.084-.73-.009-.654-.169-1.556-.478-2.654Zm.46 4.012c1.325-.705-.228-6.217-3.47-12.313-3.24-6.095-6.942-10.466-8.267-9.761-1.325.705.228 6.217 3.469 12.313 3.24 6.095 6.942 10.465 8.268 9.761Z" fill="#242424"/><path fill-rule="evenodd" clip-rule="evenodd" d="M9.88 342.647c2.188-.617 5.06-1.801 8.088-3.411 3.028-1.61 5.615-3.328 7.35-4.798.87-.737 1.507-1.396 1.88-1.933.187-.269.293-.487.339-.652.044-.163.02-.239.004-.27-.017-.032-.066-.094-.226-.148-.163-.055-.403-.089-.73-.084-.654.009-1.556.169-2.654.478-2.189.616-5.06 1.801-8.088 3.411-3.028 1.61-5.615 3.328-7.35 4.797-.87.738-1.508 1.396-1.88 1.933-.188.269-.294.487-.34.653-.044.163-.02.238-.004.27.017.032.067.093.227.147.162.055.402.089.73.085.654-.009 1.556-.169 2.654-.478Zm-4.012.459c.705 1.325 6.217-.228 12.313-3.469 6.095-3.241 10.466-6.943 9.761-8.268-.704-1.325-6.217.228-12.313 3.469-6.095 3.241-10.465 6.943-9.76 8.268Z" fill="#242424"/><path fill-rule="evenodd" clip-rule="evenodd" d="M9.88 342.647c2.188-.617 5.06-1.801 8.088-3.411 3.028-1.61 5.615-3.328 7.35-4.798.87-.737 1.507-1.396 1.88-1.933.187-.269.293-.487.339-.652.044-.163.02-.239.004-.27-.017-.032-.066-.094-.226-.148-.163-.055-.403-.089-.73-.084-.654.009-1.556.169-2.654.478-2.189.616-5.06 1.801-8.088 3.411-3.028 1.61-5.615 3.328-7.35 4.797-.87.738-1.508 1.396-1.88 1.933-.188.269-.294.487-.34.653-.044.163-.02.238-.004.27.017.032.067.093.227.147.162.055.402.089.73.085.654-.009 1.556-.169 2.654-.478Zm-4.012.459c.705 1.325 6.217-.228 12.313-3.469 6.095-3.241 10.466-6.943 9.761-8.268-.704-1.325-6.217.228-12.313 3.469-6.095 3.241-10.465 6.943-9.76 8.268Z" fill="#242424"/><circle cx="210" cy="21.069" r="6" fill="#7E8FDD"/><circle cx="27" cy="445.069" r="12" fill="#7E8FDD"/><circle cx="301" cy="472.069" r="9" fill="#9CDFDF"/></svg>