<svg width="405" height="594" viewBox="0 0 405 594" fill="none" xmlns="http://www.w3.org/2000/svg">
<path fill-rule="evenodd" clip-rule="evenodd" d="M307.943 99.4965C331.416 92.2395 357.095 100.09 372.497 119.232C365.24 95.7594 373.09 70.0811 392.233 54.6791C368.76 61.9361 343.081 54.0854 327.679 34.9432C334.936 58.4162 327.086 84.0946 307.943 99.4965ZM299.274 102.934C325.642 87.6762 335.742 54.6397 322.414 27.2458L324.242 26.274C339.5 52.6418 372.536 62.7421 399.93 49.4141L400.902 51.2418C374.534 66.4995 364.434 99.536 377.762 126.93L375.934 127.902C360.676 101.534 327.64 91.4335 300.246 104.762L299.274 102.934Z" fill="#242424"/>
<path fill-rule="evenodd" clip-rule="evenodd" d="M307.943 99.4965C331.416 92.2395 357.095 100.09 372.497 119.232C365.24 95.7594 373.09 70.0811 392.233 54.6791C368.76 61.9361 343.081 54.0854 327.679 34.9432C334.936 58.4162 327.086 84.0946 307.943 99.4965ZM299.274 102.934C325.642 87.6762 335.742 54.6397 322.414 27.2458L324.242 26.274C339.5 52.6418 372.536 62.7421 399.93 49.4141L400.902 51.2418C374.534 66.4995 364.434 99.536 377.762 126.93L375.934 127.902C360.676 101.534 327.64 91.4335 300.246 104.762L299.274 102.934Z" fill="#242424"/>
<path fill-rule="evenodd" clip-rule="evenodd" d="M374.753 109.123C371.941 99.1433 366.541 86.0501 359.2 72.2428C351.858 58.4354 344.023 46.6374 337.322 38.7257C333.96 34.7566 330.956 31.8532 328.507 30.1513C327.28 29.2985 326.287 28.8143 325.531 28.608C324.788 28.4053 324.446 28.5114 324.3 28.5886C324.155 28.6658 323.876 28.8907 323.628 29.6198C323.377 30.3616 323.223 31.4561 323.243 32.9502C323.285 35.9322 324.013 40.0456 325.423 45.0522C328.235 55.032 333.634 68.1252 340.976 81.9326C348.317 95.74 356.153 107.538 362.854 115.45C366.216 119.419 369.219 122.322 371.668 124.024C372.895 124.877 373.889 125.361 374.645 125.567C375.387 125.77 375.73 125.664 375.875 125.587C376.02 125.51 376.3 125.285 376.547 124.556C376.799 123.814 376.953 122.719 376.932 121.225C376.891 118.243 376.163 114.13 374.753 109.123ZM376.848 127.416C382.89 124.203 375.808 99.0657 361.029 71.2703C346.25 43.4749 329.37 23.5468 323.328 26.7597C317.285 29.9725 324.368 55.1097 339.147 82.905C353.926 110.7 370.805 130.629 376.848 127.416Z" fill="#242424"/>
<path fill-rule="evenodd" clip-rule="evenodd" d="M374.753 109.123C371.941 99.1433 366.541 86.0501 359.2 72.2428C351.858 58.4354 344.023 46.6374 337.322 38.7257C333.96 34.7566 330.956 31.8532 328.507 30.1513C327.28 29.2985 326.287 28.8143 325.531 28.608C324.788 28.4053 324.446 28.5114 324.3 28.5886C324.155 28.6658 323.876 28.8907 323.628 29.6198C323.377 30.3616 323.223 31.4561 323.243 32.9502C323.285 35.9322 324.013 40.0456 325.423 45.0522C328.235 55.032 333.634 68.1252 340.976 81.9326C348.317 95.74 356.153 107.538 362.854 115.45C366.216 119.419 369.219 122.322 371.668 124.024C372.895 124.877 373.889 125.361 374.645 125.567C375.387 125.77 375.73 125.664 375.875 125.587C376.02 125.51 376.3 125.285 376.547 124.556C376.799 123.814 376.953 122.719 376.932 121.225C376.891 118.243 376.163 114.13 374.753 109.123ZM376.848 127.416C382.89 124.203 375.808 99.0657 361.029 71.2703C346.25 43.4749 329.37 23.5468 323.328 26.7597C317.285 29.9725 324.368 55.1097 339.147 82.905C353.926 110.7 370.805 130.629 376.848 127.416Z" fill="#242424"/>
<path fill-rule="evenodd" clip-rule="evenodd" d="M318.052 101.752C328.032 98.9405 341.125 93.5411 354.933 86.1996C368.74 78.8581 380.538 71.0226 388.45 64.3213C392.419 60.9595 395.322 57.9562 397.024 55.5073C397.877 54.2803 398.361 53.2867 398.568 52.531C398.77 51.7883 398.664 51.4455 398.587 51.3002C398.51 51.155 398.285 50.8754 397.556 50.6281C396.814 50.3766 395.719 50.2224 394.225 50.2432C391.243 50.2847 387.13 51.0124 382.123 52.423C372.144 55.2348 359.05 60.6342 345.243 67.9757C331.436 75.3172 319.638 83.1527 311.726 89.854C307.757 93.2158 304.853 96.2191 303.151 98.6681C302.299 99.8951 301.815 100.889 301.608 101.644C301.406 102.387 301.512 102.73 301.589 102.875C301.666 103.02 301.891 103.3 302.62 103.547C303.362 103.799 304.456 103.953 305.95 103.932C308.932 103.891 313.046 103.163 318.052 101.752ZM299.76 103.848C302.973 109.89 328.11 102.808 355.905 88.0285C383.701 73.2495 403.629 56.3703 400.416 50.3278C397.203 44.2853 372.066 51.3677 344.271 66.1468C316.475 80.9259 296.547 97.8051 299.76 103.848Z" fill="#242424"/>
<path fill-rule="evenodd" clip-rule="evenodd" d="M318.052 101.752C328.032 98.9405 341.125 93.5411 354.933 86.1996C368.74 78.8581 380.538 71.0226 388.45 64.3213C392.419 60.9595 395.322 57.9562 397.024 55.5073C397.877 54.2803 398.361 53.2867 398.568 52.531C398.77 51.7883 398.664 51.4455 398.587 51.3002C398.51 51.155 398.285 50.8754 397.556 50.6281C396.814 50.3766 395.719 50.2224 394.225 50.2432C391.243 50.2847 387.13 51.0124 382.123 52.423C372.144 55.2348 359.05 60.6342 345.243 67.9757C331.436 75.3172 319.638 83.1527 311.726 89.854C307.757 93.2158 304.853 96.2191 303.151 98.6681C302.299 99.8951 301.815 100.889 301.608 101.644C301.406 102.387 301.512 102.73 301.589 102.875C301.666 103.02 301.891 103.3 302.62 103.547C303.362 103.799 304.456 103.953 305.95 103.932C308.932 103.891 313.046 103.163 318.052 101.752ZM299.76 103.848C302.973 109.89 328.11 102.808 355.905 88.0285C383.701 73.2495 403.629 56.3703 400.416 50.3278C397.203 44.2853 372.066 51.3677 344.271 66.1468C316.475 80.9259 296.547 97.8051 299.76 103.848Z" fill="#242424"/>
<path fill-rule="evenodd" clip-rule="evenodd" d="M9.80863 415.425C16.3975 413.388 23.6055 415.592 27.9289 420.965C25.8918 414.376 28.0955 407.168 33.4688 402.845C26.8799 404.882 19.6719 402.678 15.3485 397.305C17.3856 403.894 15.1819 411.102 9.80863 415.425ZM7.37517 416.39C14.7767 412.107 17.6118 402.834 13.8707 395.144L14.3837 394.872C18.6665 402.273 27.9399 405.108 35.6294 401.367L35.9022 401.88C28.5007 406.163 25.6656 415.436 29.4068 423.126L28.8937 423.399C24.6109 415.997 15.3375 413.162 7.64797 416.903L7.37517 416.39Z" fill="#242424"/>
<path fill-rule="evenodd" clip-rule="evenodd" d="M9.80863 415.425C16.3975 413.388 23.6055 415.592 27.9289 420.965C25.8918 414.376 28.0955 407.168 33.4688 402.845C26.8799 404.882 19.6719 402.678 15.3485 397.305C17.3856 403.894 15.1819 411.102 9.80863 415.425ZM7.37517 416.39C14.7767 412.107 17.6118 402.834 13.8707 395.144L14.3837 394.872C18.6665 402.273 27.9399 405.108 35.6294 401.367L35.9022 401.88C28.5007 406.163 25.6656 415.436 29.4068 423.126L28.8937 423.399C24.6109 415.997 15.3375 413.162 7.64797 416.903L7.37517 416.39Z" fill="#242424"/>
<path fill-rule="evenodd" clip-rule="evenodd" d="M28.5621 418.128C27.7728 415.326 26.2572 411.651 24.1964 407.775C22.1357 403.899 19.9362 400.588 18.0552 398.367C17.1115 397.253 16.2685 396.438 15.581 395.96C15.2366 395.721 14.9577 395.585 14.7456 395.527C14.5371 395.47 14.4409 395.5 14.4001 395.521C14.3594 395.543 14.2809 395.606 14.2115 395.811C14.1408 396.019 14.0976 396.326 14.1034 396.746C14.1151 397.583 14.3193 398.737 14.7153 400.143C15.5045 402.944 17.0202 406.619 19.0809 410.495C21.1417 414.371 23.3411 417.683 25.2222 419.903C26.1659 421.018 27.0089 421.833 27.6963 422.31C28.0408 422.55 28.3197 422.686 28.5318 422.743C28.7403 422.8 28.8365 422.771 28.8773 422.749C28.918 422.727 28.9965 422.664 29.0659 422.459C29.1365 422.251 29.1798 421.944 29.174 421.525C29.1623 420.688 28.9581 419.533 28.5621 418.128ZM29.1502 423.262C30.8464 422.36 28.8583 415.304 24.7098 407.502C20.5613 399.7 15.8233 394.106 14.1271 395.008C12.431 395.91 14.4191 402.966 18.5676 410.768C22.7161 418.57 27.4541 424.164 29.1502 423.262Z" fill="#242424"/>
<path fill-rule="evenodd" clip-rule="evenodd" d="M28.5621 418.128C27.7728 415.326 26.2572 411.651 24.1964 407.775C22.1357 403.899 19.9362 400.588 18.0552 398.367C17.1115 397.253 16.2685 396.438 15.581 395.96C15.2366 395.721 14.9577 395.585 14.7456 395.527C14.5371 395.47 14.4409 395.5 14.4001 395.521C14.3594 395.543 14.2809 395.606 14.2115 395.811C14.1408 396.019 14.0976 396.326 14.1034 396.746C14.1151 397.583 14.3193 398.737 14.7153 400.143C15.5045 402.944 17.0202 406.619 19.0809 410.495C21.1417 414.371 23.3411 417.683 25.2222 419.903C26.1659 421.018 27.0089 421.833 27.6963 422.31C28.0408 422.55 28.3197 422.686 28.5318 422.743C28.7403 422.8 28.8365 422.771 28.8773 422.749C28.918 422.727 28.9965 422.664 29.0659 422.459C29.1365 422.251 29.1798 421.944 29.174 421.525C29.1623 420.688 28.9581 419.533 28.5621 418.128ZM29.1502 423.262C30.8464 422.36 28.8583 415.304 24.7098 407.502C20.5613 399.7 15.8233 394.106 14.1271 395.008C12.431 395.91 14.4191 402.966 18.5676 410.768C22.7161 418.57 27.4541 424.164 29.1502 423.262Z" fill="#242424"/>
<path fill-rule="evenodd" clip-rule="evenodd" d="M12.6463 416.059C15.4476 415.269 19.1229 413.754 22.9987 411.693C26.8744 409.632 30.1861 407.433 32.407 405.552C33.5211 404.608 34.3361 403.765 34.8138 403.077C35.0532 402.733 35.1891 402.454 35.247 402.242C35.3039 402.034 35.2742 401.937 35.2525 401.897C35.2308 401.856 35.1677 401.777 34.963 401.708C34.7548 401.637 34.4476 401.594 34.0282 401.6C33.1911 401.612 32.0365 401.816 30.6311 402.212C27.8298 403.001 24.1545 404.517 20.2787 406.577C16.403 408.638 13.0913 410.838 10.8704 412.719C9.7563 413.662 8.9413 414.505 8.46357 415.193C8.2242 415.537 8.08828 415.816 8.03038 416.028C7.97347 416.237 8.00325 416.333 8.02492 416.374C8.0466 416.414 8.10973 416.493 8.31438 416.562C8.52262 416.633 8.82984 416.676 9.24924 416.67C10.0863 416.659 11.2409 416.455 12.6463 416.059ZM7.51154 416.647C8.41339 418.343 15.4694 416.355 23.2716 412.206C31.0739 408.058 36.6677 403.32 35.7659 401.624C34.864 399.927 27.808 401.916 20.0058 406.064C12.2035 410.213 6.6097 414.951 7.51154 416.647Z" fill="#242424"/>
<path fill-rule="evenodd" clip-rule="evenodd" d="M12.6463 416.059C15.4476 415.269 19.1229 413.754 22.9987 411.693C26.8744 409.632 30.1861 407.433 32.407 405.552C33.5211 404.608 34.3361 403.765 34.8138 403.077C35.0532 402.733 35.1891 402.454 35.247 402.242C35.3039 402.034 35.2742 401.937 35.2525 401.897C35.2308 401.856 35.1677 401.777 34.963 401.708C34.7548 401.637 34.4476 401.594 34.0282 401.6C33.1911 401.612 32.0365 401.816 30.6311 402.212C27.8298 403.001 24.1545 404.517 20.2787 406.577C16.403 408.638 13.0913 410.838 10.8704 412.719C9.7563 413.662 8.9413 414.505 8.46357 415.193C8.2242 415.537 8.08828 415.816 8.03038 416.028C7.97347 416.237 8.00325 416.333 8.02492 416.374C8.0466 416.414 8.10973 416.493 8.31438 416.562C8.52262 416.633 8.82984 416.676 9.24924 416.67C10.0863 416.659 11.2409 416.455 12.6463 416.059ZM7.51154 416.647C8.41339 418.343 15.4694 416.355 23.2716 412.206C31.0739 408.058 36.6677 403.32 35.7659 401.624C34.864 399.927 27.808 401.916 20.0058 406.064C12.2035 410.213 6.6097 414.951 7.51154 416.647Z" fill="#242424"/>
<circle cx="92" cy="557.52" r="12" fill="#7E8FDD"/>
<circle cx="264" cy="52.1846" r="9" fill="#7E8FDD"/>
<circle cx="364" cy="584.52" r="9" fill="#9CDFDF"/>
</svg>
