<svg width="405" height="594" viewBox="0 0 405 594" fill="none" xmlns="http://www.w3.org/2000/svg">
<path fill-rule="evenodd" clip-rule="evenodd" d="M307.943 99.4968C331.416 92.2398 357.095 100.09 372.497 119.233C365.24 95.7597 373.09 70.0813 392.233 54.6793C368.76 61.9363 343.081 54.0857 327.679 34.9434C334.936 58.4164 327.086 84.0948 307.943 99.4968ZM299.274 102.934C325.642 87.6764 335.742 54.6399 322.414 27.2461L324.242 26.2742C339.5 52.6421 372.536 62.7424 399.93 49.4144L400.902 51.2421C374.534 66.4997 364.434 99.5362 377.762 126.93L375.934 127.902C360.676 101.534 327.64 91.4338 300.246 104.762L299.274 102.934Z" fill="#FDFDFF"/>
<path fill-rule="evenodd" clip-rule="evenodd" d="M307.943 99.4968C331.416 92.2398 357.095 100.09 372.497 119.233C365.24 95.7597 373.09 70.0813 392.233 54.6793C368.76 61.9363 343.081 54.0857 327.679 34.9434C334.936 58.4164 327.086 84.0948 307.943 99.4968ZM299.274 102.934C325.642 87.6764 335.742 54.6399 322.414 27.2461L324.242 26.2742C339.5 52.6421 372.536 62.7424 399.93 49.4144L400.902 51.2421C374.534 66.4997 364.434 99.5362 377.762 126.93L375.934 127.902C360.676 101.534 327.64 91.4338 300.246 104.762L299.274 102.934Z" fill="#FDFDFF"/>
<path fill-rule="evenodd" clip-rule="evenodd" d="M374.753 109.123C371.941 99.1436 366.541 86.0504 359.2 72.243C351.858 58.4356 344.023 46.6377 337.322 38.7259C333.96 34.7569 330.956 31.8534 328.507 30.1515C327.28 29.2988 326.287 28.8146 325.531 28.6083C324.788 28.4055 324.446 28.5116 324.3 28.5888C324.155 28.666 323.876 28.891 323.628 29.62C323.377 30.3619 323.223 31.4564 323.243 32.9505C323.285 35.9324 324.013 40.0459 325.423 45.0524C328.235 55.0322 333.634 68.1255 340.976 81.9328C348.317 95.7402 356.153 107.538 362.854 115.45C366.216 119.419 369.219 122.322 371.668 124.024C372.895 124.877 373.889 125.361 374.645 125.568C375.387 125.77 375.73 125.664 375.875 125.587C376.02 125.51 376.3 125.285 376.547 124.556C376.799 123.814 376.953 122.719 376.932 121.225C376.891 118.243 376.163 114.13 374.753 109.123ZM376.848 127.416C382.89 124.203 375.808 99.0659 361.029 71.2706C346.25 43.4752 329.37 23.5471 323.328 26.7599C317.285 29.9728 324.368 55.1099 339.147 82.9053C353.926 110.701 370.805 130.629 376.848 127.416Z" fill="#FDFDFF"/>
<path fill-rule="evenodd" clip-rule="evenodd" d="M374.753 109.123C371.941 99.1436 366.541 86.0504 359.2 72.243C351.858 58.4356 344.023 46.6377 337.322 38.7259C333.96 34.7569 330.956 31.8534 328.507 30.1515C327.28 29.2988 326.287 28.8146 325.531 28.6083C324.788 28.4055 324.446 28.5116 324.3 28.5888C324.155 28.666 323.876 28.891 323.628 29.62C323.377 30.3619 323.223 31.4564 323.243 32.9505C323.285 35.9324 324.013 40.0459 325.423 45.0524C328.235 55.0322 333.634 68.1255 340.976 81.9328C348.317 95.7402 356.153 107.538 362.854 115.45C366.216 119.419 369.219 122.322 371.668 124.024C372.895 124.877 373.889 125.361 374.645 125.568C375.387 125.77 375.73 125.664 375.875 125.587C376.02 125.51 376.3 125.285 376.547 124.556C376.799 123.814 376.953 122.719 376.932 121.225C376.891 118.243 376.163 114.13 374.753 109.123ZM376.848 127.416C382.89 124.203 375.808 99.0659 361.029 71.2706C346.25 43.4752 329.37 23.5471 323.328 26.7599C317.285 29.9728 324.368 55.1099 339.147 82.9053C353.926 110.701 370.805 130.629 376.848 127.416Z" fill="#FDFDFF"/>
<path fill-rule="evenodd" clip-rule="evenodd" d="M318.052 101.753C328.032 98.9408 341.125 93.5414 354.933 86.1999C368.74 78.8584 380.538 71.0229 388.45 64.3216C392.419 60.9598 395.322 57.9565 397.024 55.5075C397.877 54.2805 398.361 53.2869 398.568 52.5312C398.77 51.7885 398.664 51.4457 398.587 51.3005C398.51 51.1553 398.285 50.8756 397.556 50.6284C396.814 50.3768 395.719 50.2226 394.225 50.2434C391.243 50.285 387.13 51.0126 382.123 52.4232C372.144 55.235 359.05 60.6344 345.243 67.976C331.436 75.3175 319.638 83.1529 311.726 89.8542C307.757 93.2161 304.853 96.2194 303.151 98.6683C302.299 99.8953 301.815 100.889 301.608 101.645C301.406 102.387 301.512 102.73 301.589 102.875C301.666 103.021 301.891 103.3 302.62 103.547C303.362 103.799 304.456 103.953 305.95 103.932C308.932 103.891 313.046 103.163 318.052 101.753ZM299.76 103.848C302.973 109.89 328.11 102.808 355.905 88.0288C383.701 73.2497 403.629 56.3705 400.416 50.328C397.203 44.2856 372.066 51.368 344.271 66.147C316.475 80.9261 296.547 97.8053 299.76 103.848Z" fill="#FDFDFF"/>
<path fill-rule="evenodd" clip-rule="evenodd" d="M318.052 101.753C328.032 98.9408 341.125 93.5414 354.933 86.1999C368.74 78.8584 380.538 71.0229 388.45 64.3216C392.419 60.9598 395.322 57.9565 397.024 55.5075C397.877 54.2805 398.361 53.2869 398.568 52.5312C398.77 51.7885 398.664 51.4457 398.587 51.3005C398.51 51.1553 398.285 50.8756 397.556 50.6284C396.814 50.3768 395.719 50.2226 394.225 50.2434C391.243 50.285 387.13 51.0126 382.123 52.4232C372.144 55.235 359.05 60.6344 345.243 67.976C331.436 75.3175 319.638 83.1529 311.726 89.8542C307.757 93.2161 304.853 96.2194 303.151 98.6683C302.299 99.8953 301.815 100.889 301.608 101.645C301.406 102.387 301.512 102.73 301.589 102.875C301.666 103.021 301.891 103.3 302.62 103.547C303.362 103.799 304.456 103.953 305.95 103.932C308.932 103.891 313.046 103.163 318.052 101.753ZM299.76 103.848C302.973 109.89 328.11 102.808 355.905 88.0288C383.701 73.2497 403.629 56.3705 400.416 50.328C397.203 44.2856 372.066 51.368 344.271 66.147C316.475 80.9261 296.547 97.8053 299.76 103.848Z" fill="#FDFDFF"/>
<path fill-rule="evenodd" clip-rule="evenodd" d="M9.80863 415.426C16.3975 413.389 23.6055 415.592 27.9289 420.966C25.8918 414.377 28.0955 407.169 33.4688 402.845C26.8799 404.882 19.6719 402.679 15.3485 397.305C17.3856 403.894 15.1819 411.102 9.80863 415.426ZM7.37517 416.39C14.7767 412.108 17.6118 402.834 13.8707 395.145L14.3837 394.872C18.6665 402.273 27.9399 405.109 35.6294 401.367L35.9022 401.88C28.5007 406.163 25.6656 415.437 29.4068 423.126L28.8937 423.399C24.6109 415.997 15.3375 413.162 7.64797 416.903L7.37517 416.39Z" fill="#FDFDFF"/>
<path fill-rule="evenodd" clip-rule="evenodd" d="M9.80863 415.426C16.3975 413.389 23.6055 415.592 27.9289 420.966C25.8918 414.377 28.0955 407.169 33.4688 402.845C26.8799 404.882 19.6719 402.679 15.3485 397.305C17.3856 403.894 15.1819 411.102 9.80863 415.426ZM7.37517 416.39C14.7767 412.108 17.6118 402.834 13.8707 395.145L14.3837 394.872C18.6665 402.273 27.9399 405.109 35.6294 401.367L35.9022 401.88C28.5007 406.163 25.6656 415.437 29.4068 423.126L28.8937 423.399C24.6109 415.997 15.3375 413.162 7.64797 416.903L7.37517 416.39Z" fill="#FDFDFF"/>
<path fill-rule="evenodd" clip-rule="evenodd" d="M28.5621 418.128C27.7728 415.326 26.2572 411.651 24.1964 407.775C22.1357 403.9 19.9362 400.588 18.0552 398.367C17.1115 397.253 16.2685 396.438 15.581 395.96C15.2366 395.721 14.9577 395.585 14.7456 395.527C14.5371 395.47 14.4409 395.5 14.4001 395.522C14.3594 395.543 14.2809 395.606 14.2115 395.811C14.1408 396.019 14.0976 396.327 14.1034 396.746C14.1151 397.583 14.3193 398.738 14.7153 400.143C15.5045 402.944 17.0202 406.62 19.0809 410.495C21.1417 414.371 23.3411 417.683 25.2222 419.904C26.1659 421.018 27.0089 421.833 27.6963 422.311C28.0408 422.55 28.3197 422.686 28.5318 422.744C28.7403 422.801 28.8365 422.771 28.8773 422.749C28.918 422.727 28.9965 422.664 29.0659 422.46C29.1365 422.251 29.1798 421.944 29.174 421.525C29.1623 420.688 28.9581 419.533 28.5621 418.128ZM29.1502 423.263C30.8464 422.361 28.8583 415.305 24.7098 407.502C20.5613 399.7 15.8233 394.106 14.1271 395.008C12.431 395.91 14.4191 402.966 18.5676 410.768C22.7161 418.571 27.4541 424.164 29.1502 423.263Z" fill="#FDFDFF"/>
<path fill-rule="evenodd" clip-rule="evenodd" d="M28.5621 418.128C27.7728 415.326 26.2572 411.651 24.1964 407.775C22.1357 403.9 19.9362 400.588 18.0552 398.367C17.1115 397.253 16.2685 396.438 15.581 395.96C15.2366 395.721 14.9577 395.585 14.7456 395.527C14.5371 395.47 14.4409 395.5 14.4001 395.522C14.3594 395.543 14.2809 395.606 14.2115 395.811C14.1408 396.019 14.0976 396.327 14.1034 396.746C14.1151 397.583 14.3193 398.738 14.7153 400.143C15.5045 402.944 17.0202 406.62 19.0809 410.495C21.1417 414.371 23.3411 417.683 25.2222 419.904C26.1659 421.018 27.0089 421.833 27.6963 422.311C28.0408 422.55 28.3197 422.686 28.5318 422.744C28.7403 422.801 28.8365 422.771 28.8773 422.749C28.918 422.727 28.9965 422.664 29.0659 422.46C29.1365 422.251 29.1798 421.944 29.174 421.525C29.1623 420.688 28.9581 419.533 28.5621 418.128ZM29.1502 423.263C30.8464 422.361 28.8583 415.305 24.7098 407.502C20.5613 399.7 15.8233 394.106 14.1271 395.008C12.431 395.91 14.4191 402.966 18.5676 410.768C22.7161 418.571 27.4541 424.164 29.1502 423.263Z" fill="#FDFDFF"/>
<path fill-rule="evenodd" clip-rule="evenodd" d="M12.6463 416.059C15.4476 415.27 19.1229 413.754 22.9987 411.693C26.8744 409.632 30.1861 407.433 32.407 405.552C33.5211 404.608 34.3361 403.765 34.8138 403.078C35.0532 402.733 35.1891 402.454 35.247 402.242C35.3039 402.034 35.2742 401.938 35.2525 401.897C35.2308 401.856 35.1677 401.778 34.963 401.708C34.7548 401.638 34.4476 401.594 34.0282 401.6C33.1911 401.612 32.0365 401.816 30.6311 402.212C27.8298 403.001 24.1545 404.517 20.2787 406.578C16.403 408.638 13.0913 410.838 10.8704 412.719C9.7563 413.663 8.9413 414.506 8.46357 415.193C8.2242 415.537 8.08828 415.816 8.03038 416.029C7.97347 416.237 8.00325 416.333 8.02492 416.374C8.0466 416.415 8.10973 416.493 8.31438 416.563C8.52262 416.633 8.82984 416.677 9.24924 416.671C10.0863 416.659 11.2409 416.455 12.6463 416.059ZM7.51154 416.647C8.41339 418.343 15.4694 416.355 23.2716 412.207C31.0739 408.058 36.6677 403.32 35.7659 401.624C34.864 399.928 27.808 401.916 20.0058 406.064C12.2035 410.213 6.6097 414.951 7.51154 416.647Z" fill="#FDFDFF"/>
<path fill-rule="evenodd" clip-rule="evenodd" d="M12.6463 416.059C15.4476 415.27 19.1229 413.754 22.9987 411.693C26.8744 409.632 30.1861 407.433 32.407 405.552C33.5211 404.608 34.3361 403.765 34.8138 403.078C35.0532 402.733 35.1891 402.454 35.247 402.242C35.3039 402.034 35.2742 401.938 35.2525 401.897C35.2308 401.856 35.1677 401.778 34.963 401.708C34.7548 401.638 34.4476 401.594 34.0282 401.6C33.1911 401.612 32.0365 401.816 30.6311 402.212C27.8298 403.001 24.1545 404.517 20.2787 406.578C16.403 408.638 13.0913 410.838 10.8704 412.719C9.7563 413.663 8.9413 414.506 8.46357 415.193C8.2242 415.537 8.08828 415.816 8.03038 416.029C7.97347 416.237 8.00325 416.333 8.02492 416.374C8.0466 416.415 8.10973 416.493 8.31438 416.563C8.52262 416.633 8.82984 416.677 9.24924 416.671C10.0863 416.659 11.2409 416.455 12.6463 416.059ZM7.51154 416.647C8.41339 418.343 15.4694 416.355 23.2716 412.207C31.0739 408.058 36.6677 403.32 35.7659 401.624C34.864 399.928 27.808 401.916 20.0058 406.064C12.2035 410.213 6.6097 414.951 7.51154 416.647Z" fill="#FDFDFF"/>
<circle cx="92" cy="557.52" r="12" fill="#7E8FDD"/>
<circle cx="264" cy="52.1848" r="9" fill="#7E8FDD"/>
<circle cx="364" cy="584.52" r="9" fill="#9CDFDF"/>
</svg>
